<svg xmlns="http://www.w3.org/2000/svg" xmlns:xlink="http://www.w3.org/1999/xlink" xmlns:lucid="lucid" width="1538" height="1207.66"><g transform="translate(-92 -220)" lucid:page-tab-id="0_0"><path d="M0 0h1870.87v2581.67H0z" fill="#fff"/><path d="M240 584.83a6 6 0 0 1 6-6h308a6 6 0 0 1 6 6V834a6 6 0 0 1-6 6H246a6 6 0 0 1-6-6z" fill-opacity="0"/><path d="M265.66 578.9h20.6m10.3 0h20.6m10.3 0l20.58-.02m10.3 0h20.6m10.3 0h20.6m10.3 0l20.58-.02m10.3 0h20.6m10.3 0h20.6m10.3-.02h20.58m10.3 0H554l.94.07.9.23.88.36.8.48.72.6.6.73.5.8.37.88.23.9v10.44m0 10.42v20.84m0 10.42l.02 20.84m0 10.42v20.85m0 10.43l.02 20.84m0 10.42v20.83m0 10.42v20.84m.02 10.42v20.84m0 10.42V834l-.07.94-.22.9-.35.88-.5.8-.6.72-.72.6-.8.5-.88.37-.9.23h-10.3m-10.3 0h-20.6m-10.3 0h-20.6m-10.3.02h-20.6m-10.3 0h-20.58m-10.3 0l-20.6.02m-10.3 0h-20.6m-10.3 0h-20.6m-10.28 0l-20.6.02m-10.3 0h-20.6m-10.3 0H246l-.94-.07-.9-.22-.88-.35-.8-.5-.72-.6-.6-.72-.5-.8-.37-.88-.23-.9V824.5m0-10.42v-20.85m0-10.42l-.02-20.84m0-10.43v-20.84m0-10.42l-.02-20.84m0-10.42V668.2m0-10.42v-20.84m-.02-10.42v-20.84m0-10.43v-10.42l.07-.94.22-.92.35-.87.5-.8.6-.7.72-.62.8-.5.88-.35.9-.22h10.3" stroke="#3a414a" fill="none"/><path d="M112 1320.32h240v60H112z" fill="none"/><use xlink:href="#a" transform="matrix(1,0,0,1,112,1320.3227641637327) translate(97.1604938271605 34.44444444444444)"/><path d="M300 1163.66a6 6 0 0 1 6-6h188a6 6 0 0 1 6 6v48a6 6 0 0 1-6 6H306a6 6 0 0 1-6-6z" stroke="#3a414a" fill="#fff"/><use xlink:href="#b" transform="matrix(1,0,0,1,304.99999999999994,1162.656097497066) translate(46.032026442699134 30.128126423805952)"/><path d="M200.25 1308.16a.25.25 0 0 1 .25-.25h1409a.25.25 0 0 1 .25.26.25.25 0 0 1-.25.25h-1409a.25.25 0 0 1-.25-.24z" stroke="#3a414a" stroke-width=".5" fill="none"/><path d="M300 246a6 6 0 0 1 6-6h188a6 6 0 0 1 6 6v48a6 6 0 0 1-6 6H306a6 6 0 0 1-6-6z" stroke="#3a414a" fill="#fff"/><use xlink:href="#c" transform="matrix(1,0,0,1,305,245) translate(40.59114049188793 30.128126423805952)"/><path d="M400.5 439.04h-1v-19.7h1zm0-41.04h-1v-81.15h1z" stroke="#3a414a" stroke-width=".05" fill="#3a414a"/><path d="M400.5 439.54h-1v-.52h1z" fill="#3a414a"/><path d="M400.52 439.56h-1.04V439h1.04zm-1-.5v.45h.96v-.45z" stroke="#3a414a" stroke-width=".05" fill="#3a414a"/><path d="M404.64 316.35h-9.28l4.64-14.27z" fill="#3a414a"/><path d="M405.32 316.85h-10.64l5.32-16.4zm-9.27-1h7.9L400 303.7z" stroke="#3a414a" stroke-width=".05" fill="#3a414a"/><use xlink:href="#d" transform="matrix(1,0,0,1,345.1358024691358,398.00003445982577) translate(0 14.222222222222223)"/><use xlink:href="#e" transform="matrix(1,0,0,1,345.1358024691358,398.00003445982577) translate(59.604938271604944 14.222222222222223)"/><path d="M339.8 1333.45a7.8 7.8 0 0 1 7.53-5.8H474a4.6 4.6 0 0 1 4.45 5.8l-18.24 68.4a7.8 7.8 0 0 1-7.53 5.8H326a4.6 4.6 0 0 1-4.45-5.8z" stroke="#3a414a" fill="#fff"/><use xlink:href="#f" transform="matrix(1,0,0,1,324.99999999999994,1332.6560974970657) translate(48.55438271604938 39.65277777777778)"/><path d="M559.8 1333.45a7.8 7.8 0 0 1 7.53-5.8H694a4.6 4.6 0 0 1 4.45 5.8l-18.24 68.4a7.8 7.8 0 0 1-7.53 5.8H546a4.6 4.6 0 0 1-4.45-5.8z" stroke="#3a414a" fill="#fff"/><use xlink:href="#f" transform="matrix(1,0,0,1,545,1332.6560974970657) translate(48.55438271604938 39.65277777777778)"/><path d="M400 1326.7v-92.2" stroke="#3a414a" fill="none"/><path d="M400.5 1327.2h-1v-.52h1z" stroke="#3a414a" stroke-width=".05" fill="#3a414a"/><path d="M400 1219.74l4.64 14.26h-9.28z" stroke="#3a414a" fill="#3a414a"/><path d="M520 1163.66a6 6 0 0 1 6-6h188a6 6 0 0 1 6 6v48a6 6 0 0 1-6 6H526a6 6 0 0 1-6-6z" stroke="#3a414a" fill="#fff"/><use xlink:href="#b" transform="matrix(1,0,0,1,525,1162.6560974970657) translate(46.032026442699134 30.128126423805952)"/><path d="M620 1326.7v-92.2" stroke="#3a414a" fill="none"/><path d="M620.5 1327.2h-1v-.52h1z" stroke="#3a414a" stroke-width=".05" fill="#3a414a"/><path d="M620 1219.74l4.64 14.26h-9.28z" stroke="#3a414a" fill="#3a414a"/><path d="M270 446a6 6 0 0 1 6-6h248a6 6 0 0 1 6 6v48a6 6 0 0 1-6 6H276a6 6 0 0 1-6-6z" stroke="#3a414a" fill="#fff"/><use xlink:href="#g" transform="matrix(1,0,0,1,275,445) translate(5.3005090821534395 30.128126423805952)"/><path d="M200.25 380.5a.25.25 0 0 1 .25-.25h1209a.25.25 0 0 1 .25.25.25.25 0 0 1-.25.25h-1209a.25.25 0 0 1-.25-.25z" stroke="#3a414a" stroke-width=".5" fill="none"/><path d="M160 310h240v60H160z" fill="none"/><use xlink:href="#h" transform="matrix(1,0,0,1,160,310) translate(91.60493827160494 34.44444444444444)"/><path d="M779.8 1333.45a7.8 7.8 0 0 1 7.53-5.8H914a4.6 4.6 0 0 1 4.45 5.8l-18.24 68.4a7.8 7.8 0 0 1-7.53 5.8H766a4.6 4.6 0 0 1-4.45-5.8z" stroke="#3a414a" fill="#fff"/><use xlink:href="#f" transform="matrix(1,0,0,1,765,1332.6560974970657) translate(48.55438271604938 39.65277777777778)"/><path d="M740 1163.66a6 6 0 0 1 6-6h188a6 6 0 0 1 6 6v48a6 6 0 0 1-6 6H746a6 6 0 0 1-6-6z" stroke="#3a414a" fill="#fff"/><use xlink:href="#b" transform="matrix(1,0,0,1,745,1162.6560974970657) translate(46.032026442699134 30.128126423805952)"/><path d="M840 1326.7v-92.2" stroke="#3a414a" fill="none"/><path d="M840.5 1327.2h-1v-.52h1z" stroke="#3a414a" stroke-width=".05" fill="#3a414a"/><path d="M840 1219.74l4.64 14.26h-9.28z" stroke="#3a414a" fill="#3a414a"/><path d="M270 946a6 6 0 0 1 6-6h248a6 6 0 0 1 6 6v48a6 6 0 0 1-6 6H276a6 6 0 0 1-6-6z" stroke="#3a414a" fill="#fff"/><use xlink:href="#i" transform="matrix(1,0,0,1,274.99999999999994,945) translate(5.3005090821534395 30.128126423805952)"/><path d="M400.5 1156.7h-1V1076h1zm0-102.03h-1v-37.82h1z" stroke="#3a414a" stroke-width=".05" fill="#3a414a"/><path d="M400.5 1157.2h-1v-.52h1z" fill="#3a414a"/><path d="M400.52 1157.22h-1.04v-.56h1.04zm-1-.5v.45h.96v-.46z" stroke="#3a414a" stroke-width=".05" fill="#3a414a"/><path d="M404.64 1016.35h-9.28l4.64-14.27z" fill="#3a414a"/><path d="M405.32 1016.85h-10.64l5.32-16.4zm-9.27-1h7.9L400 1003.7zM400.57 1104.88l.2.82.33.8.45.73.56.66.67.55.73.45.8.33.84.2.88.07 208.98.07 1 .25.95.4.87.52.78.66.66.78.53.87.38.94.24.98.08 1v40.7h-1v-40.66l-.07-.88-.2-.84-.33-.8-.45-.73-.56-.66-.67-.55-.73-.45-.8-.33-.82-.2-208.9-.07-1-.08-1-.24-.93-.4-.87-.52-.78-.66-.66-.78-.53-.87-.38-.94-.25-1-.02-29h1zm-.04-50.2h-1l-.03-37.83h1z" stroke="#3a414a" stroke-width=".05" fill="#3a414a"/><path d="M620.5 1157.2h-1v-.52h1z" fill="#3a414a"/><path d="M620.52 1157.22h-1.04v-.56h1.04zm-1-.5v.45h.96v-.46z" stroke="#3a414a" stroke-width=".05" fill="#3a414a"/><path d="M404.64 1016.35h-9.28l4.64-14.27z" fill="#3a414a"/><path d="M405.32 1016.85h-10.64l5.32-16.4zm-9.27-1h7.9L400 1003.7zM400.57 1104.88l.2.82.33.8.45.73.56.66.67.55.73.45.8.33.84.2.88.07 428.98.07 1 .25.95.4.87.52.78.66.66.78.53.87.38.94.24.98.08 1v40.7h-1v-40.66l-.07-.88-.2-.84-.33-.8-.45-.73-.56-.66-.67-.55-.73-.45-.8-.33-.82-.2-428.9-.07-1-.08-1-.24-.93-.4-.87-.52-.78-.66-.66-.78-.53-.87-.38-.94-.25-1-.02-29h1zm-.04-50.2h-1l-.03-37.83h1z" stroke="#3a414a" stroke-width=".05" fill="#3a414a"/><path d="M840.5 1157.2h-1v-.52h1z" fill="#3a414a"/><path d="M840.52 1157.22h-1.04v-.56h1.04zm-1-.5v.45h.96v-.46z" stroke="#3a414a" stroke-width=".05" fill="#3a414a"/><path d="M404.64 1016.35h-9.28l4.64-14.27z" fill="#3a414a"/><path d="M405.32 1016.85h-10.64l5.32-16.4zm-9.27-1h7.9L400 1003.7z" stroke="#3a414a" stroke-width=".05" fill="#3a414a"/><use xlink:href="#d" transform="matrix(1,0,0,1,345.13580246913574,1054.6666666666667) translate(0 14.222222222222223)"/><use xlink:href="#e" transform="matrix(1,0,0,1,345.13580246913574,1054.6666666666667) translate(59.604938271604944 14.222222222222223)"/><path d="M270 746a6 6 0 0 1 6-6h248a6 6 0 0 1 6 6v48a6 6 0 0 1-6 6H276a6 6 0 0 1-6-6z" stroke="#3a414a" fill="#fff"/><use xlink:href="#j" transform="matrix(1,0,0,1,274.99999999999994,745) translate(48.8275966886431 30.128126423805952)"/><path d="M400.5 939.04h-1v-28.37h1zm0-49.7h-1v-72.5h1z" stroke="#3a414a" stroke-width=".05" fill="#3a414a"/><path d="M400.5 939.54h-1v-.52h1z" fill="#3a414a"/><path d="M400.52 939.56h-1.04V939h1.04zm-1-.5v.45h.96v-.45z" stroke="#3a414a" stroke-width=".05" fill="#3a414a"/><path d="M404.64 816.35h-9.28l4.64-14.27z" fill="#3a414a"/><path d="M405.32 816.85h-10.64l5.32-16.4zm-9.27-1h7.9L400 803.7z" stroke="#3a414a" stroke-width=".05" fill="#3a414a"/><use xlink:href="#k" transform="matrix(1,0,0,1,329.8765432098765,889.3333333333335) translate(0 14.222222222222223)"/><use xlink:href="#l" transform="matrix(1,0,0,1,329.8765432098765,889.3333333333335) translate(51.604938271604944 14.222222222222223)"/><path d="M270 616a6 6 0 0 1 6-6h248a6 6 0 0 1 6 6v48a6 6 0 0 1-6 6H276a6 6 0 0 1-6-6z" stroke="#3a414a" fill="#fff"/><use xlink:href="#m" transform="matrix(1,0,0,1,274.99999999999994,615) translate(65.15025454107672 30.128126423805952)"/><path d="M400.5 739.04h-1v-16.62h1zm0-37.95h-1v-14.25h1z" stroke="#3a414a" stroke-width=".05" fill="#3a414a"/><path d="M400.5 739.54h-1v-.52h1z" fill="#3a414a"/><path d="M400.52 739.56h-1.04V739h1.04zm-1-.5v.45h.96v-.45z" stroke="#3a414a" stroke-width=".05" fill="#3a414a"/><path d="M404.64 686.35h-9.28l4.64-14.27z" fill="#3a414a"/><path d="M405.32 686.85h-10.64l5.32-16.4zm-9.27-1h7.9L400 673.7z" stroke="#3a414a" stroke-width=".05" fill="#3a414a"/><use xlink:href="#k" transform="matrix(1,0,0,1,329.8765432098765,701.0905743620854) translate(0 14.222222222222223)"/><use xlink:href="#l" transform="matrix(1,0,0,1,329.8765432098765,701.0905743620854) translate(51.604938271604944 14.222222222222223)"/><path d="M400.5 609.04h-1v-55.7h1zm0-77.04h-1v-15.15h1z" stroke="#3a414a" stroke-width=".05" fill="#3a414a"/><path d="M400.5 609.54h-1v-.52h1z" fill="#3a414a"/><path d="M400.52 609.56h-1.04V609h1.04zm-1-.5v.45h.96v-.45z" stroke="#3a414a" stroke-width=".05" fill="#3a414a"/><path d="M404.64 516.35h-9.28l4.64-14.27z" fill="#3a414a"/><path d="M405.32 516.85h-10.64l5.32-16.4zm-9.27-1h7.9L400 503.7z" stroke="#3a414a" stroke-width=".05" fill="#3a414a"/><use xlink:href="#k" transform="matrix(1,0,0,1,329.87654320987656,532.0010000000001) translate(0 14.222222222222223)"/><use xlink:href="#l" transform="matrix(1,0,0,1,329.87654320987656,532.0010000000001) translate(51.604938271604944 14.222222222222223)"/><path d="M900 584.83a6 6 0 0 1 6-6h308a6 6 0 0 1 6 6V834a6 6 0 0 1-6 6H906a6 6 0 0 1-6-6z" fill-opacity="0"/><path d="M925.66 578.9h20.6m10.3 0h20.6m10.3 0l20.58-.02m10.3 0h20.6m10.3 0h20.6m10.3 0l20.58-.02m10.3 0h20.6m10.3 0h20.6m10.3-.02h20.58m10.3 0h10.3l.94.07.9.23.88.36.8.48.72.6.6.73.5.8.37.88.23.9v10.44m0 10.42v20.84m0 10.42l.02 20.84m0 10.42v20.85m0 10.43l.02 20.84m0 10.42v20.83m0 10.42v20.84m.02 10.42v20.84m0 10.42V834l-.07.94-.22.9-.35.88-.5.8-.6.72-.72.6-.8.5-.88.37-.9.23h-10.3m-10.3 0h-20.6m-10.3 0h-20.6m-10.3.02h-20.6m-10.3 0h-20.58m-10.3 0l-20.6.02m-10.3 0h-20.6m-10.3 0h-20.6m-10.28 0l-20.6.02m-10.3 0h-20.6m-10.3 0H906l-.94-.07-.9-.22-.88-.35-.8-.5-.72-.6-.6-.72-.5-.8-.37-.88-.23-.9V824.5m0-10.42v-20.85m0-10.42l-.02-20.84m0-10.43v-20.84m0-10.42l-.02-20.84m0-10.42V668.2m0-10.42v-20.84m-.02-10.42v-20.84m0-10.43v-10.42l.07-.94.22-.92.35-.87.5-.8.6-.7.72-.62.8-.5.88-.35.9-.22h10.3" stroke="#3a414a" fill="none"/><path d="M960 1163.66a6 6 0 0 1 6-6h188a6 6 0 0 1 6 6v48a6 6 0 0 1-6 6H966a6 6 0 0 1-6-6z" stroke="#3a414a" fill="#fff"/><use xlink:href="#n" transform="matrix(1,0,0,1,965,1162.656097497066) translate(46.032026442699134 30.128126423805952)"/><path d="M1055 409.57l1 .25.95.4.87.52.78.66.66.78.53.87.38.94.24.98.08 1v23.06h-1v-23.02l-.07-.88-.2-.84-.33-.8-.45-.73-.56-.66-.67-.55-.73-.45-.8-.33-.82-.2-600.02-.06v-1zM400.57 398h-1l-.07-81.15h1z" stroke="#3a414a" stroke-width=".05" fill="#3a414a"/><path d="M1060.5 439.54h-1v-.52h1z" fill="#3a414a"/><path d="M1060.53 439.56h-1.06V439h1.06zm-1-.5v.45h.94v-.45z" stroke="#3a414a" stroke-width=".05" fill="#3a414a"/><path d="M404.64 316.35h-9.28l4.64-14.27z" fill="#3a414a"/><path d="M405.32 316.85h-10.64l5.32-16.4zm-9.27-1h7.9L400 303.7z" stroke="#3a414a" stroke-width=".05" fill="#3a414a"/><path d="M999.8 1333.45a7.8 7.8 0 0 1 7.53-5.8H1134a4.6 4.6 0 0 1 4.45 5.8l-18.24 68.4a7.8 7.8 0 0 1-7.53 5.8H986a4.6 4.6 0 0 1-4.45-5.8z" stroke="#3a414a" fill="#fff"/><use xlink:href="#o" transform="matrix(1,0,0,1,985,1332.6560974970657) translate(48.55438271604938 39.65277777777778)"/><path d="M1219.8 1333.45a7.8 7.8 0 0 1 7.53-5.8H1354a4.6 4.6 0 0 1 4.45 5.8l-18.24 68.4a7.8 7.8 0 0 1-7.53 5.8H1206a4.6 4.6 0 0 1-4.45-5.8z" stroke="#3a414a" fill="#fff"/><use xlink:href="#o" transform="matrix(1,0,0,1,1205,1332.6560974970657) translate(48.55438271604938 39.65277777777778)"/><path d="M1060 1326.7v-92.2" stroke="#3a414a" fill="none"/><path d="M1060.5 1327.2h-1v-.52h1z" stroke="#3a414a" stroke-width=".05" fill="#3a414a"/><path d="M1060 1219.74l4.64 14.26h-9.28z" stroke="#3a414a" fill="#3a414a"/><path d="M1180 1163.66a6 6 0 0 1 6-6h188a6 6 0 0 1 6 6v48a6 6 0 0 1-6 6h-188a6 6 0 0 1-6-6z" stroke="#3a414a" fill="#fff"/><use xlink:href="#n" transform="matrix(1,0,0,1,1185,1162.6560974970657) translate(46.032026442699134 30.128126423805952)"/><path d="M1280 1326.7v-92.2" stroke="#3a414a" fill="none"/><path d="M1280.5 1327.2h-1v-.52h1z" stroke="#3a414a" stroke-width=".05" fill="#3a414a"/><path d="M1280 1219.74l4.64 14.26h-9.28z" stroke="#3a414a" fill="#3a414a"/><path d="M930 446a6 6 0 0 1 6-6h248a6 6 0 0 1 6 6v48a6 6 0 0 1-6 6H936a6 6 0 0 1-6-6z" stroke="#3a414a" fill="#fff"/><use xlink:href="#g" transform="matrix(1,0,0,1,935,444.99999999999994) translate(5.3005090821534395 30.128126423805952)"/><path d="M1439.8 1333.45a7.8 7.8 0 0 1 7.53-5.8H1574a4.6 4.6 0 0 1 4.45 5.8l-18.24 68.4a7.8 7.8 0 0 1-7.53 5.8H1426a4.6 4.6 0 0 1-4.45-5.8z" stroke="#3a414a" fill="#fff"/><use xlink:href="#o" transform="matrix(1,0,0,1,1425,1332.6560974970657) translate(48.55438271604938 39.65277777777778)"/><path d="M1400 1163.66a6 6 0 0 1 6-6h188a6 6 0 0 1 6 6v48a6 6 0 0 1-6 6h-188a6 6 0 0 1-6-6z" stroke="#3a414a" fill="#fff"/><use xlink:href="#n" transform="matrix(1,0,0,1,1405,1162.6560974970657) translate(46.032026442699134 30.128126423805952)"/><path d="M1500 1326.7v-92.2" stroke="#3a414a" fill="none"/><path d="M1500.5 1327.2h-1v-.52h1z" stroke="#3a414a" stroke-width=".05" fill="#3a414a"/><path d="M1500 1219.74l4.64 14.26h-9.28z" stroke="#3a414a" fill="#3a414a"/><path d="M930 946a6 6 0 0 1 6-6h248a6 6 0 0 1 6 6v48a6 6 0 0 1-6 6H936a6 6 0 0 1-6-6z" stroke="#3a414a" fill="#fff"/><use xlink:href="#i" transform="matrix(1,0,0,1,935,945) translate(5.3005090821534395 30.128126423805952)"/><path d="M1060.57 1104.88l.2.82.33.8.45.73.56.66.67.55.73.45.8.33.84.2.88.07 428.98.07 1 .25.95.4.87.52.78.66.66.78.53.87.38.94.24.98.08 1v40.7h-1v-40.66l-.07-.88-.2-.84-.33-.8-.45-.73-.56-.66-.67-.55-.73-.45-.8-.33-.82-.2-428.9-.07-1-.08-1-.24-.93-.4-.87-.52-.78-.66-.66-.78-.53-.87-.38-.94-.25-1-.02-29h1zm-.04-50.2h-1l-.03-37.83h1z" stroke="#3a414a" stroke-width=".05" fill="#3a414a"/><path d="M1500.5 1157.2h-1v-.52h1z" fill="#3a414a"/><path d="M1500.53 1157.22h-1.06v-.56h1.06zm-1-.5v.45h.94v-.46z" stroke="#3a414a" stroke-width=".05" fill="#3a414a"/><path d="M1064.64 1016.35h-9.28l4.64-14.27z" fill="#3a414a"/><path d="M1065.32 1016.85h-10.64l5.32-16.4zm-9.27-1h7.9l-3.95-12.15z" stroke="#3a414a" stroke-width=".05" fill="#3a414a"/><use xlink:href="#d" transform="matrix(1,0,0,1,1005.1358024691358,1054.6666666666667) translate(0 14.222222222222223)"/><use xlink:href="#e" transform="matrix(1,0,0,1,1005.1358024691358,1054.6666666666667) translate(59.604938271604944 14.222222222222223)"/><path d="M930 746a6 6 0 0 1 6-6h248a6 6 0 0 1 6 6v48a6 6 0 0 1-6 6H936a6 6 0 0 1-6-6z" stroke="#3a414a" fill="#fff"/><use xlink:href="#j" transform="matrix(1,0,0,1,935,745) translate(48.8275966886431 30.128126423805952)"/><path d="M1060.5 939.04h-1v-28.37h1zm0-49.7h-1v-72.5h1z" stroke="#3a414a" stroke-width=".05" fill="#3a414a"/><path d="M1060.5 939.54h-1v-.52h1z" fill="#3a414a"/><path d="M1060.53 939.56h-1.06V939h1.06zm-1-.5v.45h.94v-.45z" stroke="#3a414a" stroke-width=".05" fill="#3a414a"/><path d="M1064.64 816.35h-9.28l4.64-14.27z" fill="#3a414a"/><path d="M1065.32 816.85h-10.64l5.32-16.4zm-9.27-1h7.9L1060 803.7z" stroke="#3a414a" stroke-width=".05" fill="#3a414a"/><use xlink:href="#k" transform="matrix(1,0,0,1,989.8765432098766,889.3333333333335) translate(0 14.222222222222223)"/><use xlink:href="#l" transform="matrix(1,0,0,1,989.8765432098766,889.3333333333335) translate(51.604938271604944 14.222222222222223)"/><path d="M1060.5 739.04h-1v-16.62h1zm0-37.95h-1v-14.25h1z" stroke="#3a414a" stroke-width=".05" fill="#3a414a"/><path d="M1060.5 739.54h-1v-.52h1z" fill="#3a414a"/><path d="M1060.53 739.56h-1.06V739h1.06zm-1-.5v.45h.94v-.45z" stroke="#3a414a" stroke-width=".05" fill="#3a414a"/><path d="M1064.64 686.35h-9.28l4.64-14.27z" fill="#3a414a"/><path d="M1065.32 686.85h-10.64l5.32-16.4zm-9.27-1h7.9L1060 673.7z" stroke="#3a414a" stroke-width=".05" fill="#3a414a"/><use xlink:href="#k" transform="matrix(1,0,0,1,989.8765432098766,701.0905743620854) translate(0 14.222222222222223)"/><use xlink:href="#l" transform="matrix(1,0,0,1,989.8765432098766,701.0905743620854) translate(51.604938271604944 14.222222222222223)"/><path d="M1060.5 609.04h-1v-55.7h1zm0-77.04h-1v-15.15h1z" stroke="#3a414a" stroke-width=".05" fill="#3a414a"/><path d="M1060.5 609.54h-1v-.52h1z" fill="#3a414a"/><path d="M1060.53 609.56h-1.06V609h1.06zm-1-.5v.45h.94v-.45z" stroke="#3a414a" stroke-width=".05" fill="#3a414a"/><path d="M1064.64 516.35h-9.28l4.64-14.27z" fill="#3a414a"/><path d="M1065.32 516.85h-10.64l5.32-16.4zm-9.27-1h7.9L1060 503.7z" stroke="#3a414a" stroke-width=".05" fill="#3a414a"/><use xlink:href="#k" transform="matrix(1,0,0,1,989.8765432098766,532.0000000000001) translate(0 14.222222222222223)"/><use xlink:href="#l" transform="matrix(1,0,0,1,989.8765432098766,532.0000000000001) translate(51.604938271604944 14.222222222222223)"/><path d="M930 616a6 6 0 0 1 6-6h248a6 6 0 0 1 6 6v48a6 6 0 0 1-6 6H936a6 6 0 0 1-6-6z" stroke="#3a414a" fill="#fff"/><use xlink:href="#m" transform="matrix(1,0,0,1,935,615) translate(65.15025454107672 30.128126423805952)"/><path d="M1060.5 1156.7h-1V1076h1zm0-102.03h-1v-37.82h1z" stroke="#3a414a" stroke-width=".05" fill="#3a414a"/><path d="M1060.5 1157.2h-1v-.52h1z" fill="#3a414a"/><path d="M1060.53 1157.22h-1.06v-.56h1.06zm-1-.5v.45h.94v-.46z" stroke="#3a414a" stroke-width=".05" fill="#3a414a"/><path d="M1064.64 1016.35h-9.28l4.64-14.27z" fill="#3a414a"/><path d="M1065.32 1016.85h-10.64l5.32-16.4zm-9.27-1h7.9l-3.95-12.15zM1060.57 1104.88l.2.82.33.8.45.73.56.66.67.55.73.45.8.33.84.2.88.07 208.98.07 1 .25.95.4.87.52.78.66.66.78.53.87.38.94.24.98.08 1v40.7h-1v-40.66l-.07-.88-.2-.84-.33-.8-.45-.73-.56-.66-.67-.55-.73-.45-.8-.33-.82-.2-208.9-.07-1-.08-1-.24-.93-.4-.87-.52-.78-.66-.66-.78-.53-.87-.38-.94-.25-1-.02-29h1zm-.04-50.2h-1l-.03-37.83h1z" stroke="#3a414a" stroke-width=".05" fill="#3a414a"/><path d="M1280.5 1157.2h-1v-.52h1z" fill="#3a414a"/><path d="M1280.53 1157.22h-1.06v-.56h1.06zm-1-.5v.45h.94v-.46z" stroke="#3a414a" stroke-width=".05" fill="#3a414a"/><path d="M1064.64 1016.35h-9.28l4.64-14.27z" fill="#3a414a"/><path d="M1065.32 1016.85h-10.64l5.32-16.4zm-9.27-1h7.9l-3.95-12.15z" stroke="#3a414a" stroke-width=".05" fill="#3a414a"/><defs><path fill="#3a414a" d="M47-200c-23 0-25-39 0-38 13 0 18 7 20 19-1 11-8 19-20 19zM65-12l28 4v8H8v-8l28-4v-141l-24-4v-8h53v153" id="p"/><path fill="#3a414a" d="M125-118c4-37-41-34-68-26v132l23 4v8H8C5-13 21-9 28-12v-141c-7-3-23 1-20-12h47l2 13c31-23 98-29 98 31v109c7 3 23-1 20 12h-72v-8l22-4v-106" id="q"/><path fill="#3a414a" d="M166-85c3 67-44 102-111 85l1 64 29 4v9H6v-9l21-4v-217c-7-3-22 1-19-12h46l1 9c11-8 26-14 45-14 47 2 64 36 66 85zM56-13c53 14 83-14 78-72 7-53-33-79-78-60v132" id="r"/><path fill="#3a414a" d="M124-13C89 8 26 15 26-45v-108c-8-3-24 2-21-12h50v118c-3 37 42 32 69 25v-131l-25-4v-8h54v153c8 3 24-2 21 12h-48" id="s"/><path fill="#3a414a" d="M54-38c-1 25 24 26 44 20v12C71 10 25 9 25-35v-115H4c-2-14 14-10 21-15l18-38h11v38h38v15H54v112" id="t"/><g id="a"><use transform="matrix(0.06172839506172839,0,0,0.06172839506172839,0,0)" xlink:href="#p"/><use transform="matrix(0.06172839506172839,0,0,0.06172839506172839,6.172839506172839,0)" xlink:href="#q"/><use transform="matrix(0.06172839506172839,0,0,0.06172839506172839,17.28395061728395,0)" xlink:href="#r"/><use transform="matrix(0.06172839506172839,0,0,0.06172839506172839,28.39506172839506,0)" xlink:href="#s"/><use transform="matrix(0.06172839506172839,0,0,0.06172839506172839,39.50617283950617,0)" xlink:href="#t"/></g><path fill="#24292f" d="M745-142h380V0H143v-142h422v-798H246v-142h499v940zM545-1292v-192h200v192H545" id="u"/><path fill="#24292f" d="M615-1102c343 0 484 203 482 560-1 347-147 562-488 562-336 0-475-219-479-562-4-349 156-560 485-560zm-8 989c240 0 301-180 301-429 0-245-55-427-290-427-236 0-299 181-299 427 0 243 61 429 288 429" id="v"/><path fill="#24292f" d="M496 0v-299h235V0H496" id="w"/><path fill="#24292f" d="M1121-976c0 225-142 341-344 379L1177 0H957L591-575H353V0H162v-1349h482c281 3 477 100 477 373zM633-726c181-1 296-73 296-247 0-149-101-223-304-223H353v470h280" id="x"/><path fill="#24292f" d="M617-1102c355 0 481 238 477 599H322c5 222 84 388 301 388 144 0 244-59 284-166l158 45C1002-72 854 20 623 20c-342 0-490-220-490-568 0-346 151-554 484-554zm291 461c-18-192-90-328-289-328-194 0-287 128-295 328h584" id="y"/><path fill="#24292f" d="M1000-272c3 95 12 159 101 161 21 0 41-3 59-7V-6c-44 10-86 16-139 16-141 2-191-84-197-217h-6C748-76 648 20 446 20c-207 0-318-120-318-322 0-266 194-348 454-354l236-4c12-191-40-305-222-305-140 0-220 47-232 172l-188-17c33-204 181-292 423-292 255 0 401 118 401 364v466zm-683-27c0 109 63 184 175 182 166-3 259-96 306-217 24-65 20-120 20-200-232 7-501-28-501 235" id="z"/><path fill="#24292f" d="M865-914c-3-187-2-380-2-570h180v1261c0 76 1 155 6 223H877c-8-49-9-116-10-174h-5C801-44 708 26 530 26c-135 0-234-46-297-139s-95-232-95-419c0-377 131-566 392-566 176 0 271 63 335 184zm-286-51c-222 0-255 197-255 427 0 229 31 425 253 425 237 0 286-195 286-441 0-238-52-411-284-411" id="A"/><path fill="#24292f" d="M839-1102c70 0 148 7 206 17v167c-112-18-268-36-363 15-129 69-208 203-208 395V0H294c-10-367 32-789-52-1082h171c21 75 41 161 48 250h5c67-152 152-270 373-270" id="B"/><g id="b"><use transform="matrix(0.00885416753590107,0,0,0.00885416753590107,0,0)" xlink:href="#u"/><use transform="matrix(0.00885416753590107,0,0,0.00885416753590107,10.881771901622415,0)" xlink:href="#v"/><use transform="matrix(0.00885416753590107,0,0,0.00885416753590107,21.76354380324483,0)" xlink:href="#w"/><use transform="matrix(0.00885416753590107,0,0,0.00885416753590107,32.645315704867244,0)" xlink:href="#x"/><use transform="matrix(0.00885416753590107,0,0,0.00885416753590107,43.52708760648966,0)" xlink:href="#y"/><use transform="matrix(0.00885416753590107,0,0,0.00885416753590107,54.40885950811207,0)" xlink:href="#z"/><use transform="matrix(0.00885416753590107,0,0,0.00885416753590107,65.29063140973449,0)" xlink:href="#A"/><use transform="matrix(0.00885416753590107,0,0,0.00885416753590107,76.1724033113569,0)" xlink:href="#y"/><use transform="matrix(0.00885416753590107,0,0,0.00885416753590107,87.05417521297932,0)" xlink:href="#B"/></g><path fill="#24292f" d="M1034 0L896-382H333L196 0H0l510-1349h217L1228 0h-194zM847-531c-77-225-157-447-231-674-69 231-154 451-232 674h463" id="C"/><path fill="#24292f" d="M736-142h380V0H134v-142h422v-1200H267v-142h469v1342" id="D"/><g id="c"><use transform="matrix(0.00885416753590107,0,0,0.00885416753590107,0,0)" xlink:href="#u"/><use transform="matrix(0.00885416753590107,0,0,0.00885416753590107,10.881771901622415,0)" xlink:href="#v"/><use transform="matrix(0.00885416753590107,0,0,0.00885416753590107,21.76354380324483,0)" xlink:href="#w"/><use transform="matrix(0.00885416753590107,0,0,0.00885416753590107,32.645315704867244,0)" xlink:href="#x"/><use transform="matrix(0.00885416753590107,0,0,0.00885416753590107,43.52708760648966,0)" xlink:href="#y"/><use transform="matrix(0.00885416753590107,0,0,0.00885416753590107,54.40885950811207,0)" xlink:href="#z"/><use transform="matrix(0.00885416753590107,0,0,0.00885416753590107,65.29063140973449,0)" xlink:href="#A"/><use transform="matrix(0.00885416753590107,0,0,0.00885416753590107,76.1724033113569,0)" xlink:href="#C"/><use transform="matrix(0.00885416753590107,0,0,0.00885416753590107,87.05417521297932,0)" xlink:href="#D"/><use transform="matrix(0.00885416753590107,0,0,0.00885416753590107,97.93594711460173,0)" xlink:href="#D"/></g><path fill="#333" d="M222-170c0 37-18 56-47 65l63 87 25 5V0h-76l-66-100H92v82l30 5V0H8v-13l28-5v-200l-30-5v-13c89 5 214-24 216 66zM92-119c45 2 75-3 75-50s-30-49-75-47v97" id="E"/><path fill="#333" d="M12-83c0-55 22-85 75-86 52-1 66 33 63 88H64c-1 37 6 64 44 63 14 0 28-4 39-6 3 28-28 25-55 27-57 4-80-31-80-86zm90-17c2-26 0-63-27-48-10 9-11 28-11 48h38" id="F"/><path fill="#333" d="M31-163c51-5 127-20 127 40v107l17 4V0h-61l-4-13C82 13 12 12 12-46c0-51 46-52 95-53 9-45-22-69-57-44l-7 20H31v-40zM62-47c0 30 26 34 45 23v-59c-28 0-45 6-45 36" id="G"/><path fill="#333" d="M15-82c-4-69 47-101 113-83l-1-69-17-4v-12h68v234l18 4V0h-63l-4-9C77 23 5-9 15-82zm112-66c-43-16-64 17-61 65 2 33 3 67 32 67 12 0 22-3 29-8v-124" id="H"/><path fill="#333" d="M108-230c-35 27-44 80-44 143s8 116 44 144v20C7 49-17-153 67-223c12-10 25-19 41-27v20" id="I"/><path fill="#333" d="M72-18c49 15 64-22 62-69-1-34-4-62-34-63-10-1-23 2-28 6v126zm33 22C77 4 48-3 21-8v-226l-16-4v-12h67c-1 31 2 66-2 94 11-8 28-14 47-14 51 0 70 31 69 83-1 55-26 91-81 91" id="J"/><g id="d"><use transform="matrix(0.04938271604938272,0,0,0.04938271604938272,0,0)" xlink:href="#E"/><use transform="matrix(0.04938271604938272,0,0,0.04938271604938272,12.790123456790125,0)" xlink:href="#F"/><use transform="matrix(0.04938271604938272,0,0,0.04938271604938272,20.641975308641978,0)" xlink:href="#G"/><use transform="matrix(0.04938271604938272,0,0,0.04938271604938272,29.530864197530867,0)" xlink:href="#H"/><use transform="matrix(0.04938271604938272,0,0,0.04938271604938272,39.40740740740741,0)" xlink:href="#I"/><use transform="matrix(0.04938271604938272,0,0,0.04938271604938272,45.283950617283956,0)" xlink:href="#J"/></g><path fill="#333" d="M27 48v-298h80v12l-36 7V29l36 7v12H27" id="K"/><path fill="#333" d="M13 48V36l36-7v-260l-36-7v-12h80V48H13" id="L"/><path fill="#333" d="M81 5L15-149c-7-2-13-5-11-16h84v11l-20 5 39 91 35-91-19-5v-11h53c2 11-4 13-11 15C134-81 111-5 75 58 65 77 34 83 8 74V32h11c0 24 29 35 43 12 7-11 13-25 19-39" id="M"/><path fill="#333" d="M78-41c-2 24 21 26 40 20C122 3 98 2 77 4 5 10 32-84 27-147H6v-11l25-7 21-38h26v38h35v18H78v106" id="N"/><path fill="#333" d="M12-250C113-222 137-19 52 49 40 59 28 69 12 77V57C48 29 56-24 56-87s-9-116-44-143v-20" id="O"/><g id="e"><use transform="matrix(0.04938271604938272,0,0,0.04938271604938272,0,0)" xlink:href="#K"/><use transform="matrix(0.04938271604938272,0,0,0.04938271604938272,5.8765432098765435,0)" xlink:href="#L"/><use transform="matrix(0.04938271604938272,0,0,0.04938271604938272,11.753086419753087,0)" xlink:href="#J"/><use transform="matrix(0.04938271604938272,0,0,0.04938271604938272,21.629629629629633,0)" xlink:href="#M"/><use transform="matrix(0.04938271604938272,0,0,0.04938271604938272,30.518518518518523,0)" xlink:href="#N"/><use transform="matrix(0.04938271604938272,0,0,0.04938271604938272,36.39506172839506,0)" xlink:href="#F"/><use transform="matrix(0.04938271604938272,0,0,0.04938271604938272,44.24691358024692,0)" xlink:href="#O"/></g><path fill="#3a414a" d="M27 48v-298h80v8l-52 8V33l52 7v8H27" id="P"/><path fill="#3a414a" d="M13 48v-8l52-7v-267l-52-8v-8h80V48H13" id="Q"/><path fill="#3a414a" d="M53-14c58 12 82-15 82-73 0-52-35-77-82-58v131zM89 4C64 4 42-2 24-9v-229l-24-4v-8h53l-1 94c48-33 114-4 114 69 0 57-23 91-77 91" id="R"/><path fill="#3a414a" d="M161-154L85 37C75 66 49 86 8 75V39c18-2 6 24 29 21 30-4 38-32 47-58L21-153c-7-3-20 0-17-12h77v8l-26 4 45 116 43-116-26-4v-8h62v8" id="S"/><path fill="#3a414a" d="M84-170c49 0 66 33 63 87H46c-8 60 38 80 95 63v10C128-2 108 4 88 4 34 4 14-29 14-84c-1-54 22-86 70-86zm33 73c12-57-57-82-69-24-1 7-2 15-2 24h71" id="T"/><g id="f"><use transform="matrix(0.06172839506172839,0,0,0.06172839506172839,0,0)" xlink:href="#P"/><use transform="matrix(0.06172839506172839,0,0,0.06172839506172839,7.345679012345679,0)" xlink:href="#Q"/><use transform="matrix(0.06172839506172839,0,0,0.06172839506172839,14.691358024691358,0)" xlink:href="#R"/><use transform="matrix(0.06172839506172839,0,0,0.06172839506172839,25.80246913580247,0)" xlink:href="#S"/><use transform="matrix(0.06172839506172839,0,0,0.06172839506172839,36.91358024691358,0)" xlink:href="#t"/><use transform="matrix(0.06172839506172839,0,0,0.06172839506172839,43.086419753086425,0)" xlink:href="#T"/></g><path fill="#24292f" d="M202-1349h823v156H709v1037h316V0H202v-156h316v-1037H202v-156" id="U"/><path fill="#24292f" d="M682 16c-209 0-323-80-324-285v-671H190v-142h170l58-282h120v282h432v142H538v652c2 114 60 155 182 155 106 0 209-16 297-34v137C921-4 806 16 682 16" id="V"/><path fill="#24292f" d="M709-1193V0H519v-1193H76v-156h1076v156H709" id="W"/><path fill="#24292f" d="M802-711c201 25 350 118 350 331C1152-95 921 0 634 0H162v-1349c401 9 908-74 908 327 0 184-111 275-268 311zm-224-69c174-2 300-51 300-218 0-163-124-198-302-198H353v416h225zM353-153c281-2 612 44 606-244-5-271-329-233-606-234v478" id="X"/><path fill="#24292f" d="M1048-32c-2 300-135 456-433 456-222-1-358-88-400-267l184-25c22 99 100 157 222 156 184-2 248-125 248-315 0-64 3-133-2-194C807-100 706-13 524-12c-306 0-381-228-381-537 0-318 85-550 400-550 164 0 271 83 325 202h3c1-60 3-134 12-185h171c-13 339-4 702-6 1050zM585-145c210-8 284-178 284-406 0-192-52-331-177-392-33-16-69-22-104-22-223 2-259 184-259 414 0 229 31 415 256 406" id="Y"/><g id="g"><use transform="matrix(0.00885416753590107,0,0,0.00885416753590107,0,0)" xlink:href="#U"/><use transform="matrix(0.00885416753590107,0,0,0.00885416753590107,10.881771901622415,0)" xlink:href="#V"/><use transform="matrix(0.00885416753590107,0,0,0.00885416753590107,21.76354380324483,0)" xlink:href="#y"/><use transform="matrix(0.00885416753590107,0,0,0.00885416753590107,32.645315704867244,0)" xlink:href="#B"/><use transform="matrix(0.00885416753590107,0,0,0.00885416753590107,43.52708760648966,0)" xlink:href="#z"/><use transform="matrix(0.00885416753590107,0,0,0.00885416753590107,54.40885950811207,0)" xlink:href="#V"/><use transform="matrix(0.00885416753590107,0,0,0.00885416753590107,65.29063140973449,0)" xlink:href="#v"/><use transform="matrix(0.00885416753590107,0,0,0.00885416753590107,76.1724033113569,0)" xlink:href="#B"/><use transform="matrix(0.00885416753590107,0,0,0.00885416753590107,87.05417521297932,0)" xlink:href="#W"/><use transform="matrix(0.00885416753590107,0,0,0.00885416753590107,97.93594711460173,0)" xlink:href="#v"/><use transform="matrix(0.00885416753590107,0,0,0.00885416753590107,108.81771901622415,0)" xlink:href="#x"/><use transform="matrix(0.00885416753590107,0,0,0.00885416753590107,119.69949091784656,0)" xlink:href="#y"/><use transform="matrix(0.00885416753590107,0,0,0.00885416753590107,130.58126281946898,0)" xlink:href="#z"/><use transform="matrix(0.00885416753590107,0,0,0.00885416753590107,141.4630347210914,0)" xlink:href="#A"/><use transform="matrix(0.00885416753590107,0,0,0.00885416753590107,152.3448066227138,0)" xlink:href="#y"/><use transform="matrix(0.00885416753590107,0,0,0.00885416753590107,163.22657852433622,0)" xlink:href="#B"/><use transform="matrix(0.00885416753590107,0,0,0.00885416753590107,174.10835042595863,0)" xlink:href="#X"/><use transform="matrix(0.00885416753590107,0,0,0.00885416753590107,184.99012232758105,0)" xlink:href="#B"/><use transform="matrix(0.00885416753590107,0,0,0.00885416753590107,195.87189422920346,0)" xlink:href="#u"/><use transform="matrix(0.00885416753590107,0,0,0.00885416753590107,206.75366613082588,0)" xlink:href="#A"/><use transform="matrix(0.00885416753590107,0,0,0.00885416753590107,217.6354380324483,0)" xlink:href="#Y"/><use transform="matrix(0.00885416753590107,0,0,0.00885416753590107,228.5172099340707,0)" xlink:href="#y"/></g><path fill="#3a414a" d="M90-170c52 0 76 32 76 87 0 54-24 87-77 87-51 0-75-34-75-87 0-54 24-87 76-87zM89-10c39 0 46-35 46-73 0-39-7-73-46-73-39 1-44 34-44 73s6 72 44 73" id="Z"/><g id="h"><use transform="matrix(0.06172839506172839,0,0,0.06172839506172839,0,0)" xlink:href="#Z"/><use transform="matrix(0.06172839506172839,0,0,0.06172839506172839,11.11111111111111,0)" xlink:href="#s"/><use transform="matrix(0.06172839506172839,0,0,0.06172839506172839,22.22222222222222,0)" xlink:href="#t"/><use transform="matrix(0.06172839506172839,0,0,0.06172839506172839,28.39506172839506,0)" xlink:href="#r"/><use transform="matrix(0.06172839506172839,0,0,0.06172839506172839,39.50617283950617,0)" xlink:href="#s"/><use transform="matrix(0.06172839506172839,0,0,0.06172839506172839,50.61728395061728,0)" xlink:href="#t"/></g><g id="i"><use transform="matrix(0.00885416753590107,0,0,0.00885416753590107,0,0)" xlink:href="#x"/><use transform="matrix(0.00885416753590107,0,0,0.00885416753590107,10.881771901622415,0)" xlink:href="#y"/><use transform="matrix(0.00885416753590107,0,0,0.00885416753590107,21.76354380324483,0)" xlink:href="#z"/><use transform="matrix(0.00885416753590107,0,0,0.00885416753590107,32.645315704867244,0)" xlink:href="#A"/><use transform="matrix(0.00885416753590107,0,0,0.00885416753590107,43.52708760648966,0)" xlink:href="#y"/><use transform="matrix(0.00885416753590107,0,0,0.00885416753590107,54.40885950811207,0)" xlink:href="#B"/><use transform="matrix(0.00885416753590107,0,0,0.00885416753590107,65.29063140973449,0)" xlink:href="#W"/><use transform="matrix(0.00885416753590107,0,0,0.00885416753590107,76.1724033113569,0)" xlink:href="#v"/><use transform="matrix(0.00885416753590107,0,0,0.00885416753590107,87.05417521297932,0)" xlink:href="#U"/><use transform="matrix(0.00885416753590107,0,0,0.00885416753590107,97.93594711460173,0)" xlink:href="#V"/><use transform="matrix(0.00885416753590107,0,0,0.00885416753590107,108.81771901622415,0)" xlink:href="#y"/><use transform="matrix(0.00885416753590107,0,0,0.00885416753590107,119.69949091784656,0)" xlink:href="#B"/><use transform="matrix(0.00885416753590107,0,0,0.00885416753590107,130.58126281946898,0)" xlink:href="#z"/><use transform="matrix(0.00885416753590107,0,0,0.00885416753590107,141.4630347210914,0)" xlink:href="#V"/><use transform="matrix(0.00885416753590107,0,0,0.00885416753590107,152.3448066227138,0)" xlink:href="#v"/><use transform="matrix(0.00885416753590107,0,0,0.00885416753590107,163.22657852433622,0)" xlink:href="#B"/><use transform="matrix(0.00885416753590107,0,0,0.00885416753590107,174.10835042595863,0)" xlink:href="#X"/><use transform="matrix(0.00885416753590107,0,0,0.00885416753590107,184.99012232758105,0)" xlink:href="#B"/><use transform="matrix(0.00885416753590107,0,0,0.00885416753590107,195.87189422920346,0)" xlink:href="#u"/><use transform="matrix(0.00885416753590107,0,0,0.00885416753590107,206.75366613082588,0)" xlink:href="#A"/><use transform="matrix(0.00885416753590107,0,0,0.00885416753590107,217.6354380324483,0)" xlink:href="#Y"/><use transform="matrix(0.00885416753590107,0,0,0.00885416753590107,228.5172099340707,0)" xlink:href="#y"/></g><path fill="#24292f" d="M614-1226c-167 1-283 53-283 213 0 183 186 193 334 234 230 63 463 120 463 409 0 286-219 387-518 390C309 23 131-98 79-338l185-37c34 165 149 248 351 246 184-2 324-58 324-238 0-203-207-221-372-266-210-57-422-111-422-377 0-267 201-356 470-360 279-5 430 101 480 324l-188 33c-28-141-121-215-293-213" id="aa"/><path fill="#24292f" d="M631 20c-350 0-501-215-501-562 0-355 162-560 502-560 250 0 399 118 446 323l-192 14c-23-124-109-196-262-196-242 0-305 171-305 415 1 245 61 427 304 427 151 0 248-77 267-215l190 12C1039-107 883 20 631 20" id="ab"/><g id="j"><use transform="matrix(0.00885416753590107,0,0,0.00885416753590107,0,0)" xlink:href="#aa"/><use transform="matrix(0.00885416753590107,0,0,0.00885416753590107,10.881771901622415,0)" xlink:href="#y"/><use transform="matrix(0.00885416753590107,0,0,0.00885416753590107,21.76354380324483,0)" xlink:href="#D"/><use transform="matrix(0.00885416753590107,0,0,0.00885416753590107,32.645315704867244,0)" xlink:href="#y"/><use transform="matrix(0.00885416753590107,0,0,0.00885416753590107,43.52708760648966,0)" xlink:href="#ab"/><use transform="matrix(0.00885416753590107,0,0,0.00885416753590107,54.40885950811207,0)" xlink:href="#V"/><use transform="matrix(0.00885416753590107,0,0,0.00885416753590107,65.29063140973449,0)" xlink:href="#U"/><use transform="matrix(0.00885416753590107,0,0,0.00885416753590107,76.1724033113569,0)" xlink:href="#V"/><use transform="matrix(0.00885416753590107,0,0,0.00885416753590107,87.05417521297932,0)" xlink:href="#y"/><use transform="matrix(0.00885416753590107,0,0,0.00885416753590107,97.93594711460173,0)" xlink:href="#B"/><use transform="matrix(0.00885416753590107,0,0,0.00885416753590107,108.81771901622415,0)" xlink:href="#z"/><use transform="matrix(0.00885416753590107,0,0,0.00885416753590107,119.69949091784656,0)" xlink:href="#V"/><use transform="matrix(0.00885416753590107,0,0,0.00885416753590107,130.58126281946898,0)" xlink:href="#v"/><use transform="matrix(0.00885416753590107,0,0,0.00885416753590107,141.4630347210914,0)" xlink:href="#B"/></g><path fill="#333" d="M203-218l-32-5v-13h84v13l-30 5V0h-21L59-189v171l32 5V0H7v-13l30-5v-200l-30-5v-13h81L203-85v-133" id="ac"/><path fill="#333" d="M5-154v-11h89v11l-19 5 24 37 32-37-16-5v-11h56v11l-15 4-46 54 52 81 16 4V0H90v-11l18-4-29-45-38 45 17 4V0H1v-11l15-3 53-62-48-73" id="ad"/><g id="k"><use transform="matrix(0.04938271604938272,0,0,0.04938271604938272,0,0)" xlink:href="#ac"/><use transform="matrix(0.04938271604938272,0,0,0.04938271604938272,12.790123456790125,0)" xlink:href="#F"/><use transform="matrix(0.04938271604938272,0,0,0.04938271604938272,20.641975308641978,0)" xlink:href="#ad"/><use transform="matrix(0.04938271604938272,0,0,0.04938271604938272,29.530864197530867,0)" xlink:href="#N"/><use transform="matrix(0.04938271604938272,0,0,0.04938271604938272,35.40740740740741,0)" xlink:href="#I"/><use transform="matrix(0.04938271604938272,0,0,0.04938271604938272,41.283950617283956,0)" xlink:href="#O"/></g><path fill="#333" d="M155 0h-10L58-199v181l32 5V0H6v-13l30-5v-200l-30-5v-13h93l67 155 69-155h94v13l-30 5v200l30 5V0H212v-13l32-5v-181" id="ae"/><path fill="#333" d="M6-13l30-5v-200l-30-5v-13h201v60h-16l-6-38-93-2v86h61l6-26h16v73h-16l-6-27H92v91l104-3 10-44h16l-4 66H6v-13" id="af"/><path fill="#333" d="M76-16l18 4V0H7v-12l18-4v-218l-17-4v-12h68v234" id="ag"/><path fill="#333" d="M126-114c3-31-27-37-49-25v123l15 4V0H10v-12l16-4v-133l-16-5v-11h64l2 14c24-16 81-33 96 3 30-24 105-39 105 27v105l17 4V0h-82v-12l14-4v-98c4-33-27-37-51-24 5 35 0 82 2 122l17 4V0h-83v-12l15-4v-98" id="ah"/><path fill="#333" d="M127-114c3-31-26-38-50-25v123l15 4V0H10v-12l16-4v-133l-16-5v-11h64l2 14c31-23 102-32 102 30v105l17 4V0h-82v-12l14-4v-98" id="ai"/><g id="l"><use transform="matrix(0.04938271604938272,0,0,0.04938271604938272,0,0)" xlink:href="#ae"/><use transform="matrix(0.04938271604938272,0,0,0.04938271604938272,16.74074074074074,0)" xlink:href="#M"/><use transform="matrix(0.04938271604938272,0,0,0.04938271604938272,25.629629629629633,0)" xlink:href="#af"/><use transform="matrix(0.04938271604938272,0,0,0.04938271604938272,37.48148148148148,0)" xlink:href="#ag"/><use transform="matrix(0.04938271604938272,0,0,0.04938271604938272,42.41975308641975,0)" xlink:href="#F"/><use transform="matrix(0.04938271604938272,0,0,0.04938271604938272,50.27160493827161,0)" xlink:href="#ah"/><use transform="matrix(0.04938271604938272,0,0,0.04938271604938272,65.03703703703704,0)" xlink:href="#F"/><use transform="matrix(0.04938271604938272,0,0,0.04938271604938272,72.88888888888889,0)" xlink:href="#ai"/><use transform="matrix(0.04938271604938272,0,0,0.04938271604938272,82.76543209876543,0)" xlink:href="#N"/></g><path fill="#24292f" d="M614-836l333-513h205L717-705 1193 0H988L614-573 241 0H36l476-705-435-644h205" id="aj"/><path fill="#24292f" d="M708-584V0H520v-584L36-1349h205l374 611 372-611h205" id="ak"/><path fill="#24292f" d="M1155 0H73v-143l818-1050H146v-156h962v139L290-156h865V0" id="al"/><g id="m"><use transform="matrix(0.00885416753590107,0,0,0.00885416753590107,0,0)" xlink:href="#aj"/><use transform="matrix(0.00885416753590107,0,0,0.00885416753590107,10.881771901622415,0)" xlink:href="#ak"/><use transform="matrix(0.00885416753590107,0,0,0.00885416753590107,21.76354380324483,0)" xlink:href="#al"/><use transform="matrix(0.00885416753590107,0,0,0.00885416753590107,32.645315704867244,0)" xlink:href="#U"/><use transform="matrix(0.00885416753590107,0,0,0.00885416753590107,43.52708760648966,0)" xlink:href="#V"/><use transform="matrix(0.00885416753590107,0,0,0.00885416753590107,54.40885950811207,0)" xlink:href="#y"/><use transform="matrix(0.00885416753590107,0,0,0.00885416753590107,65.29063140973449,0)" xlink:href="#B"/><use transform="matrix(0.00885416753590107,0,0,0.00885416753590107,76.1724033113569,0)" xlink:href="#z"/><use transform="matrix(0.00885416753590107,0,0,0.00885416753590107,87.05417521297932,0)" xlink:href="#V"/><use transform="matrix(0.00885416753590107,0,0,0.00885416753590107,97.93594711460173,0)" xlink:href="#v"/><use transform="matrix(0.00885416753590107,0,0,0.00885416753590107,108.81771901622415,0)" xlink:href="#B"/></g><g id="n"><use transform="matrix(0.00885416753590107,0,0,0.00885416753590107,0,0)" xlink:href="#u"/><use transform="matrix(0.00885416753590107,0,0,0.00885416753590107,10.881771901622415,0)" xlink:href="#v"/><use transform="matrix(0.00885416753590107,0,0,0.00885416753590107,21.76354380324483,0)" xlink:href="#w"/><use transform="matrix(0.00885416753590107,0,0,0.00885416753590107,32.645315704867244,0)" xlink:href="#x"/><use transform="matrix(0.00885416753590107,0,0,0.00885416753590107,43.52708760648966,0)" xlink:href="#y"/><use transform="matrix(0.00885416753590107,0,0,0.00885416753590107,54.40885950811207,0)" xlink:href="#z"/><use transform="matrix(0.00885416753590107,0,0,0.00885416753590107,65.29063140973449,0)" xlink:href="#A"/><use transform="matrix(0.00885416753590107,0,0,0.00885416753590107,76.1724033113569,0)" xlink:href="#y"/><use transform="matrix(0.00885416753590107,0,0,0.00885416753590107,87.05417521297932,0)" xlink:href="#B"/></g><g id="o"><use transform="matrix(0.06172839506172839,0,0,0.06172839506172839,0,0)" xlink:href="#P"/><use transform="matrix(0.06172839506172839,0,0,0.06172839506172839,7.345679012345679,0)" xlink:href="#Q"/><use transform="matrix(0.06172839506172839,0,0,0.06172839506172839,14.691358024691358,0)" xlink:href="#R"/><use transform="matrix(0.06172839506172839,0,0,0.06172839506172839,25.80246913580247,0)" xlink:href="#S"/><use transform="matrix(0.06172839506172839,0,0,0.06172839506172839,36.91358024691358,0)" xlink:href="#t"/><use transform="matrix(0.06172839506172839,0,0,0.06172839506172839,43.086419753086425,0)" xlink:href="#T"/></g></defs></g></svg>