<svg xmlns="http://www.w3.org/2000/svg" xmlns:xlink="http://www.w3.org/1999/xlink" xmlns:lucid="lucid" width="1538" height="968.12"><g transform="translate(-92.00000000000006 -220)" lucid:page-tab-id="0_0"><path d="M0 0h1870.87v1322.83H0z" fill="#fff"/><path d="M112 1080.8h240v60H112z" fill="none"/><use xlink:href="#a" transform="matrix(1,0,0,1,112.00000000000006,1080.7861375983002) translate(97.1604938271605 34.44444444444444)"/><path d="M200 630.77a6 6 0 0 1 6-6h388a6 6 0 0 1 6 6v176.58a6 6 0 0 1-6 6H206a6 6 0 0 1-6-6zM300 924.12a6 6 0 0 1 6-6h188a6 6 0 0 1 6 6v48a6 6 0 0 1-6 6H306a6 6 0 0 1-6-6z" stroke="#3a414a" fill="#fff"/><use xlink:href="#b" transform="matrix(1,0,0,1,305,923.1194709316334) translate(46.032026442699134 30.128126423805952)"/><path d="M200.25 1068.62a.25.25 0 0 1 .25-.25h1409a.25.25 0 0 1 .25.25.25.25 0 0 1-.25.25h-1409a.25.25 0 0 1-.25-.25z" stroke="#3a414a" stroke-width=".5" fill="none"/><path d="M400.5 917.16h-1v-57.43h1zm0-78.77h-1v-41.55h1z" stroke="#3a414a" stroke-width=".05" fill="#3a414a"/><path d="M400.5 917.66h-1v-.52h1z" fill="#3a414a"/><path d="M400.52 917.68h-1.04v-.56h1.04zm-1-.5v.45h.96v-.46z" stroke="#3a414a" stroke-width=".05" fill="#3a414a"/><path d="M404.64 796.35h-9.28l4.64-14.27z" fill="#3a414a"/><path d="M405.32 796.85h-10.64l5.32-16.4zm-9.27-1h7.9L400 783.7z" stroke="#3a414a" stroke-width=".05" fill="#3a414a"/><use xlink:href="#c" transform="matrix(1,0,0,1,341.679012345679,838.3931523995733) translate(0 14.222222222222223)"/><use xlink:href="#d" transform="matrix(1,0,0,1,341.679012345679,838.3931523995733) translate(59.604938271604944 14.222222222222223)"/><path d="M300 246a6 6 0 0 1 6-6h188a6 6 0 0 1 6 6v48a6 6 0 0 1-6 6H306a6 6 0 0 1-6-6z" stroke="#3a414a" fill="#fff"/><use xlink:href="#e" transform="matrix(1,0,0,1,305,245) translate(40.59114049188793 30.128126423805952)"/><path d="M400.5 623.8h-1v-40.75h1zm0-62.08h-1v-24.87h1z" stroke="#3a414a" stroke-width=".05" fill="#3a414a"/><path d="M400.5 624.3h-1v-.5h1z" fill="#3a414a"/><path d="M400.52 624.33h-1.04v-.56h1.04zm-1-.5v.45h.96v-.46z" stroke="#3a414a" stroke-width=".05" fill="#3a414a"/><path d="M404.64 536.35h-9.28l4.64-14.27z" fill="#3a414a"/><path d="M405.32 536.85h-10.64l5.32-16.4zm-9.27-1h7.9L400 523.7z" stroke="#3a414a" stroke-width=".05" fill="#3a414a"/><use xlink:href="#f" transform="matrix(1,0,0,1,341.679012345679,561.7175790194623) translate(0 14.222222222222223)"/><use xlink:href="#g" transform="matrix(1,0,0,1,341.679012345679,561.7175790194623) translate(59.604938271604944 14.222222222222223)"/><path d="M400 459.04v-142.2" stroke="#3a414a" fill="none"/><path d="M400.5 459.54h-1v-.52h1z" stroke="#3a414a" stroke-width=".05" fill="#3a414a"/><path d="M400 302.08l4.64 14.27h-9.28z" stroke="#3a414a" fill="#3a414a"/><path d="M339.8 1093.92a7.8 7.8 0 0 1 7.53-5.8H474a4.6 4.6 0 0 1 4.45 5.8l-18.24 68.4a7.8 7.8 0 0 1-7.53 5.8H326a4.6 4.6 0 0 1-4.45-5.8z" stroke="#3a414a" fill="#fff"/><use xlink:href="#h" transform="matrix(1,0,0,1,325,1093.1194709316333) translate(48.55438271604938 39.65277777777778)"/><path d="M559.8 1093.92a7.8 7.8 0 0 1 7.53-5.8H694a4.6 4.6 0 0 1 4.45 5.8l-18.24 68.4a7.8 7.8 0 0 1-7.53 5.8H546a4.6 4.6 0 0 1-4.45-5.8z" stroke="#3a414a" fill="#fff"/><use xlink:href="#h" transform="matrix(1,0,0,1,545,1093.1194709316333) translate(48.55438271604938 39.65277777777778)"/><path d="M400 1087.16v-92.2" stroke="#3a414a" fill="none"/><path d="M400.5 1087.66h-1v-.5h1z" stroke="#3a414a" stroke-width=".05" fill="#3a414a"/><path d="M400 980.2l4.64 14.27h-9.28z" stroke="#3a414a" fill="#3a414a"/><path d="M520 924.12a6 6 0 0 1 6-6h188a6 6 0 0 1 6 6v48a6 6 0 0 1-6 6H526a6 6 0 0 1-6-6z" stroke="#3a414a" fill="#fff"/><use xlink:href="#b" transform="matrix(1,0,0,1,525,923.1194709316333) translate(46.032026442699134 30.128126423805952)"/><path d="M400.57 884.88l.2.82.33.8.45.73.56.66.67.55.73.45.8.33.84.2.88.07 208.98.07 1 .25.95.4.87.52.78.66.66.78.53.87.38.94.24.98.08 1v21.18h-1v-21.14l-.07-.88-.2-.84-.33-.8-.45-.73-.56-.66-.67-.55-.73-.45-.8-.33-.82-.2-208.9-.07-1-.08-1-.24-.93-.4-.87-.52-.78-.66-.66-.78-.53-.87-.38-.94-.25-1-.02-25.27h1zm-.04-46.5h-1l-.03-41.53h1z" stroke="#3a414a" stroke-width=".05" fill="#3a414a"/><path d="M620.5 917.66h-1v-.52h1z" fill="#3a414a"/><path d="M620.52 917.68h-1.04v-.56h1.04zm-1-.5v.45h.96v-.46z" stroke="#3a414a" stroke-width=".05" fill="#3a414a"/><path d="M404.64 796.35h-9.28l4.64-14.27z" fill="#3a414a"/><path d="M405.32 796.85h-10.64l5.32-16.4zm-9.27-1h7.9L400 783.7z" stroke="#3a414a" stroke-width=".05" fill="#3a414a"/><path d="M620 1087.16v-92.2" stroke="#3a414a" fill="none"/><path d="M620.5 1087.66h-1v-.5h1z" stroke="#3a414a" stroke-width=".05" fill="#3a414a"/><path d="M620 980.2l4.64 14.27h-9.28z" stroke="#3a414a" fill="#3a414a"/><path d="M300 466a6 6 0 0 1 6-6h188a6 6 0 0 1 6 6v48a6 6 0 0 1-6 6H306a6 6 0 0 1-6-6z" stroke="#3a414a" fill="#fff"/><use xlink:href="#i" transform="matrix(1,0,0,1,305,465) translate(18.827596688643098 30.128126423805952)"/><path d="M200.25 380.5a.25.25 0 0 1 .25-.25h1209a.25.25 0 0 1 .25.25.25.25 0 0 1-.25.25h-1209a.25.25 0 0 1-.25-.25z" stroke="#3a414a" stroke-width=".5" fill="none"/><path d="M160 310h240v60H160z" fill="none"/><use xlink:href="#j" transform="matrix(1,0,0,1,160,310) translate(91.60493827160494 34.44444444444444)"/><path d="M345 746a6 6 0 0 1 6-6h98a6 6 0 0 1 6 6v28a6 6 0 0 1-6 6h-98a6 6 0 0 1-6-6z" stroke="#3a414a" fill="#fff"/><use xlink:href="#k" transform="matrix(1,0,0,1,350,745) translate(16.40740740740742 18.166666666666664)"/><path d="M380 641a6 6 0 0 1 6-6h228a6 6 0 0 1 6 6v48a6 6 0 0 1-6 6H386a6 6 0 0 1-6-6z" stroke="#000" stroke-opacity="0" fill="#fff" fill-opacity="0"/><use xlink:href="#l" transform="matrix(1,0,0,1,385,640) translate(47.345679012345684 30.27777777777778)"/><path d="M779.8 1093.92a7.8 7.8 0 0 1 7.53-5.8H914a4.6 4.6 0 0 1 4.45 5.8l-18.24 68.4a7.8 7.8 0 0 1-7.53 5.8H766a4.6 4.6 0 0 1-4.45-5.8z" stroke="#3a414a" fill="#fff"/><use xlink:href="#m" transform="matrix(1,0,0,1,765,1093.1194709316333) translate(48.55438271604938 39.65277777777778)"/><path d="M740 924.12a6 6 0 0 1 6-6h188a6 6 0 0 1 6 6v48a6 6 0 0 1-6 6H746a6 6 0 0 1-6-6z" stroke="#3a414a" fill="#fff"/><use xlink:href="#n" transform="matrix(1,0,0,1,745,923.1194709316333) translate(46.032026442699134 30.128126423805952)"/><path d="M400.57 884.88l.2.82.33.8.45.73.56.66.67.55.73.45.8.33.84.2.88.07 428.98.07 1 .25.95.4.87.52.78.66.66.78.53.87.38.94.24.98.08 1v21.18h-1v-21.14l-.07-.88-.2-.84-.33-.8-.45-.73-.56-.66-.67-.55-.73-.45-.8-.33-.82-.2-428.9-.07-1-.08-1-.24-.93-.4-.87-.52-.78-.66-.66-.78-.53-.87-.38-.94-.25-1-.02-25.27h1zm-.04-46.5h-1l-.03-41.53h1z" stroke="#3a414a" stroke-width=".05" fill="#3a414a"/><path d="M840.5 917.66h-1v-.52h1z" fill="#3a414a"/><path d="M840.52 917.68h-1.04v-.56h1.04zm-1-.5v.45h.96v-.46z" stroke="#3a414a" stroke-width=".05" fill="#3a414a"/><path d="M404.64 796.35h-9.28l4.64-14.27z" fill="#3a414a"/><path d="M405.32 796.85h-10.64l5.32-16.4zm-9.27-1h7.9L400 783.7z" stroke="#3a414a" stroke-width=".05" fill="#3a414a"/><path d="M840 1087.16v-92.2" stroke="#3a414a" fill="none"/><path d="M840.5 1087.66h-1v-.5h1z" stroke="#3a414a" stroke-width=".05" fill="#3a414a"/><path d="M840 980.2l4.64 14.27h-9.28z" stroke="#3a414a" fill="#3a414a"/><path d="M280 666a6 6 0 0 1 6-6h88a6 6 0 0 1 6 6v19.67a6 6 0 0 1-6 6h-88a6 6 0 0 1-6-6z" stroke="#3a414a" fill="#fff"/><use xlink:href="#o" transform="matrix(1,0,0,1,285,665) translate(7.515432098765444 13.819444444444443)"/><path d="M400 739.04v-17.2a6 6 0 0 0-6-6h-58a6 6 0 0 1-6-6v-1.33" stroke="#3a414a" fill="none"/><path d="M400.5 739.54h-1v-.52h1z" stroke="#3a414a" stroke-width=".05" fill="#3a414a"/><path d="M330 693.75l4.64 14.26h-9.28z" stroke="#3a414a" fill="#3a414a"/><path d="M400.43 670.83l-.25 1-.4.95-.52.87-.66.78-.78.66-.87.53-.94.4-.98.22-1 .08h-13.06v-1h13.02l.88-.07.84-.2.8-.33.73-.45.66-.56.55-.65.45-.74.33-.8.2-.82.04-87.65h1zm.07-133.98v24.87h-1v-24.87z" stroke="#3a414a" stroke-width=".05" fill="#3a414a"/><path d="M380.98 676.33h-.5l-.02-1h.52z" fill="#3a414a"/><path d="M381 676.36h-.56v-1.05h.56zm-.5-1v.95h.45v-.94z" stroke="#3a414a" stroke-width=".05" fill="#3a414a"/><path d="M404.64 536.35h-9.28l4.64-14.27z" fill="#3a414a"/><path d="M405.32 536.85h-10.64l5.32-16.4zm-9.27-1h7.9L400 523.7z" stroke="#3a414a" stroke-width=".05" fill="#3a414a"/><path d="M860 630.77a6 6 0 0 1 6-6h388a6 6 0 0 1 6 6v176.58a6 6 0 0 1-6 6H866a6 6 0 0 1-6-6zM960 924.12a6 6 0 0 1 6-6h188a6 6 0 0 1 6 6v48a6 6 0 0 1-6 6H966a6 6 0 0 1-6-6z" stroke="#3a414a" fill="#fff"/><use xlink:href="#n" transform="matrix(1,0,0,1,965,923.1194709316335) translate(46.032026442699134 30.128126423805952)"/><path d="M1060.5 917.16h-1v-57.43h1zm0-78.77h-1v-41.55h1z" stroke="#3a414a" stroke-width=".05" fill="#3a414a"/><path d="M1060.5 917.66h-1v-.52h1z" fill="#3a414a"/><path d="M1060.53 917.68h-1.06v-.56h1.06zm-1-.5v.45h.94v-.46z" stroke="#3a414a" stroke-width=".05" fill="#3a414a"/><path d="M1064.64 796.35h-9.28l4.64-14.27z" fill="#3a414a"/><path d="M1065.32 796.85h-10.64l5.32-16.4zm-9.27-1h7.9L1060 783.7z" stroke="#3a414a" stroke-width=".05" fill="#3a414a"/><use xlink:href="#c" transform="matrix(1,0,0,1,1001.679012345679,838.3931523995733) translate(0 14.222222222222223)"/><use xlink:href="#d" transform="matrix(1,0,0,1,1001.679012345679,838.3931523995733) translate(59.604938271604944 14.222222222222223)"/><path d="M999.8 1093.92a7.8 7.8 0 0 1 7.53-5.8H1134a4.6 4.6 0 0 1 4.45 5.8l-18.24 68.4a7.8 7.8 0 0 1-7.53 5.8H986a4.6 4.6 0 0 1-4.45-5.8z" stroke="#3a414a" fill="#fff"/><use xlink:href="#m" transform="matrix(1,0,0,1,985,1093.1194709316333) translate(48.55438271604938 39.65277777777778)"/><path d="M1219.8 1093.92a7.8 7.8 0 0 1 7.53-5.8H1354a4.6 4.6 0 0 1 4.45 5.8l-18.24 68.4a7.8 7.8 0 0 1-7.53 5.8H1206a4.6 4.6 0 0 1-4.45-5.8z" stroke="#3a414a" fill="#fff"/><use xlink:href="#m" transform="matrix(1,0,0,1,1205,1093.1194709316333) translate(48.55438271604938 39.65277777777778)"/><path d="M1060 1087.16v-92.2" stroke="#3a414a" fill="none"/><path d="M1060.5 1087.66h-1v-.5h1z" stroke="#3a414a" stroke-width=".05" fill="#3a414a"/><path d="M1060 980.2l4.64 14.27h-9.28z" stroke="#3a414a" fill="#3a414a"/><path d="M1180 924.12a6 6 0 0 1 6-6h188a6 6 0 0 1 6 6v48a6 6 0 0 1-6 6h-188a6 6 0 0 1-6-6z" stroke="#3a414a" fill="#fff"/><use xlink:href="#n" transform="matrix(1,0,0,1,1185,923.1194709316333) translate(46.032026442699134 30.128126423805952)"/><path d="M1060.57 884.88l.2.82.33.8.45.73.56.66.67.55.73.45.8.33.84.2.88.07 208.98.07 1 .25.95.4.87.52.78.66.66.78.53.87.38.94.24.98.08 1v21.18h-1v-21.14l-.07-.88-.2-.84-.33-.8-.45-.73-.56-.66-.67-.55-.73-.45-.8-.33-.82-.2-208.9-.07-1-.08-1-.24-.93-.4-.87-.52-.78-.66-.66-.78-.53-.87-.38-.94-.25-1-.02-25.27h1zm-.04-46.5h-1l-.03-41.53h1z" stroke="#3a414a" stroke-width=".05" fill="#3a414a"/><path d="M1280.5 917.66h-1v-.52h1z" fill="#3a414a"/><path d="M1280.53 917.68h-1.06v-.56h1.06zm-1-.5v.45h.94v-.46z" stroke="#3a414a" stroke-width=".05" fill="#3a414a"/><path d="M1064.64 796.35h-9.28l4.64-14.27z" fill="#3a414a"/><path d="M1065.32 796.85h-10.64l5.32-16.4zm-9.27-1h7.9L1060 783.7z" stroke="#3a414a" stroke-width=".05" fill="#3a414a"/><path d="M1280 1087.16v-92.2" stroke="#3a414a" fill="none"/><path d="M1280.5 1087.66h-1v-.5h1z" stroke="#3a414a" stroke-width=".05" fill="#3a414a"/><path d="M1280 980.2l4.64 14.27h-9.28z" stroke="#3a414a" fill="#3a414a"/><path d="M1005 746a6 6 0 0 1 6-6h98a6 6 0 0 1 6 6v28a6 6 0 0 1-6 6h-98a6 6 0 0 1-6-6z" stroke="#3a414a" fill="#fff"/><use xlink:href="#k" transform="matrix(1,0,0,1,1010,745.0000000000001) translate(16.40740740740742 18.166666666666664)"/><path d="M1040 641a6 6 0 0 1 6-6h228a6 6 0 0 1 6 6v48a6 6 0 0 1-6 6h-228a6 6 0 0 1-6-6z" stroke="#000" stroke-opacity="0" fill="#fff" fill-opacity="0"/><use xlink:href="#l" transform="matrix(1,0,0,1,1045,640.0000000000001) translate(47.345679012345684 30.27777777777778)"/><path d="M1439.8 1093.92a7.8 7.8 0 0 1 7.53-5.8H1574a4.6 4.6 0 0 1 4.45 5.8l-18.24 68.4a7.8 7.8 0 0 1-7.53 5.8H1426a4.6 4.6 0 0 1-4.45-5.8z" stroke="#3a414a" fill="#fff"/><use xlink:href="#m" transform="matrix(1,0,0,1,1425,1093.1194709316333) translate(48.55438271604938 39.65277777777778)"/><path d="M1400 924.12a6 6 0 0 1 6-6h188a6 6 0 0 1 6 6v48a6 6 0 0 1-6 6h-188a6 6 0 0 1-6-6z" stroke="#3a414a" fill="#fff"/><use xlink:href="#n" transform="matrix(1,0,0,1,1405,923.1194709316333) translate(46.032026442699134 30.128126423805952)"/><path d="M1060.57 884.88l.2.82.33.8.45.73.56.66.67.55.73.45.8.33.84.2.88.07 428.98.07 1 .25.95.4.87.52.78.66.66.78.53.87.38.94.24.98.08 1v21.18h-1v-21.14l-.07-.88-.2-.84-.33-.8-.45-.73-.56-.66-.67-.55-.73-.45-.8-.33-.82-.2-428.9-.07-1-.08-1-.24-.93-.4-.87-.52-.78-.66-.66-.78-.53-.87-.38-.94-.25-1-.02-25.27h1zm-.04-46.5h-1l-.03-41.53h1z" stroke="#3a414a" stroke-width=".05" fill="#3a414a"/><path d="M1500.5 917.66h-1v-.52h1z" fill="#3a414a"/><path d="M1500.53 917.68h-1.06v-.56h1.06zm-1-.5v.45h.94v-.46z" stroke="#3a414a" stroke-width=".05" fill="#3a414a"/><path d="M1064.64 796.35h-9.28l4.64-14.27z" fill="#3a414a"/><path d="M1065.32 796.85h-10.64l5.32-16.4zm-9.27-1h7.9L1060 783.7z" stroke="#3a414a" stroke-width=".05" fill="#3a414a"/><path d="M1500 1087.16v-92.2" stroke="#3a414a" fill="none"/><path d="M1500.5 1087.66h-1v-.5h1z" stroke="#3a414a" stroke-width=".05" fill="#3a414a"/><path d="M1500 980.2l4.64 14.27h-9.28z" stroke="#3a414a" fill="#3a414a"/><path d="M940 666a6 6 0 0 1 6-6h88a6 6 0 0 1 6 6v19.67a6 6 0 0 1-6 6h-88a6 6 0 0 1-6-6z" stroke="#3a414a" fill="#fff"/><use xlink:href="#o" transform="matrix(1,0,0,1,945,665.0000000000002) translate(7.515432098765444 13.819444444444443)"/><path d="M1060 739.04v-17.2a6 6 0 0 0-6-6h-58a6 6 0 0 1-6-6v-1.33" stroke="#3a414a" fill="none"/><path d="M1060.5 739.54h-1v-.52h1z" stroke="#3a414a" stroke-width=".05" fill="#3a414a"/><path d="M990 693.75l4.64 14.26h-9.28z" stroke="#3a414a" fill="#3a414a"/><path d="M400.57 594.88l.2.82.33.8.45.73.56.66.67.55.73.45.8.33.84.2.88.07 578.98.07 1 .25.95.4.87.52.78.66.66.78.53.87.38.94.24.98.08 1v53.06h-1v-53.02l-.07-.88-.2-.84-.33-.8-.45-.73-.56-.66-.67-.55-.73-.45-.8-.33-.82-.2-578.9-.07-1-.08-1-.24-.93-.4-.87-.52-.78-.66-.66-.78-.53-.87-.38-.94-.25-1v-11.95h1zm-.04-33.16h-1l-.03-24.87h1z" stroke="#3a414a" stroke-width=".05" fill="#3a414a"/><path d="M990.5 659.54h-1v-.52h1z" fill="#3a414a"/><path d="M990.52 659.56h-1.04V659h1.04zm-1-.5v.45h.96v-.45z" stroke="#3a414a" stroke-width=".05" fill="#3a414a"/><path d="M404.64 536.35h-9.28l4.64-14.27z" fill="#3a414a"/><path d="M405.32 536.85h-10.64l5.32-16.4zm-9.27-1h7.9L400 523.7z" stroke="#3a414a" stroke-width=".05" fill="#3a414a"/><defs><path fill="#3a414a" d="M47-200c-23 0-25-39 0-38 13 0 18 7 20 19-1 11-8 19-20 19zM65-12l28 4v8H8v-8l28-4v-141l-24-4v-8h53v153" id="p"/><path fill="#3a414a" d="M125-118c4-37-41-34-68-26v132l23 4v8H8C5-13 21-9 28-12v-141c-7-3-23 1-20-12h47l2 13c31-23 98-29 98 31v109c7 3 23-1 20 12h-72v-8l22-4v-106" id="q"/><path fill="#3a414a" d="M166-85c3 67-44 102-111 85l1 64 29 4v9H6v-9l21-4v-217c-7-3-22 1-19-12h46l1 9c11-8 26-14 45-14 47 2 64 36 66 85zM56-13c53 14 83-14 78-72 7-53-33-79-78-60v132" id="r"/><path fill="#3a414a" d="M124-13C89 8 26 15 26-45v-108c-8-3-24 2-21-12h50v118c-3 37 42 32 69 25v-131l-25-4v-8h54v153c8 3 24-2 21 12h-48" id="s"/><path fill="#3a414a" d="M54-38c-1 25 24 26 44 20v12C71 10 25 9 25-35v-115H4c-2-14 14-10 21-15l18-38h11v38h38v15H54v112" id="t"/><g id="a"><use transform="matrix(0.06172839506172839,0,0,0.06172839506172839,0,0)" xlink:href="#p"/><use transform="matrix(0.06172839506172839,0,0,0.06172839506172839,6.172839506172839,0)" xlink:href="#q"/><use transform="matrix(0.06172839506172839,0,0,0.06172839506172839,17.28395061728395,0)" xlink:href="#r"/><use transform="matrix(0.06172839506172839,0,0,0.06172839506172839,28.39506172839506,0)" xlink:href="#s"/><use transform="matrix(0.06172839506172839,0,0,0.06172839506172839,39.50617283950617,0)" xlink:href="#t"/></g><path fill="#24292f" d="M745-142h380V0H143v-142h422v-798H246v-142h499v940zM545-1292v-192h200v192H545" id="u"/><path fill="#24292f" d="M615-1102c343 0 484 203 482 560-1 347-147 562-488 562-336 0-475-219-479-562-4-349 156-560 485-560zm-8 989c240 0 301-180 301-429 0-245-55-427-290-427-236 0-299 181-299 427 0 243 61 429 288 429" id="v"/><path fill="#24292f" d="M496 0v-299h235V0H496" id="w"/><path fill="#24292f" d="M1121-976c0 225-142 341-344 379L1177 0H957L591-575H353V0H162v-1349h482c281 3 477 100 477 373zM633-726c181-1 296-73 296-247 0-149-101-223-304-223H353v470h280" id="x"/><path fill="#24292f" d="M617-1102c355 0 481 238 477 599H322c5 222 84 388 301 388 144 0 244-59 284-166l158 45C1002-72 854 20 623 20c-342 0-490-220-490-568 0-346 151-554 484-554zm291 461c-18-192-90-328-289-328-194 0-287 128-295 328h584" id="y"/><path fill="#24292f" d="M1000-272c3 95 12 159 101 161 21 0 41-3 59-7V-6c-44 10-86 16-139 16-141 2-191-84-197-217h-6C748-76 648 20 446 20c-207 0-318-120-318-322 0-266 194-348 454-354l236-4c12-191-40-305-222-305-140 0-220 47-232 172l-188-17c33-204 181-292 423-292 255 0 401 118 401 364v466zm-683-27c0 109 63 184 175 182 166-3 259-96 306-217 24-65 20-120 20-200-232 7-501-28-501 235" id="z"/><path fill="#24292f" d="M865-914c-3-187-2-380-2-570h180v1261c0 76 1 155 6 223H877c-8-49-9-116-10-174h-5C801-44 708 26 530 26c-135 0-234-46-297-139s-95-232-95-419c0-377 131-566 392-566 176 0 271 63 335 184zm-286-51c-222 0-255 197-255 427 0 229 31 425 253 425 237 0 286-195 286-441 0-238-52-411-284-411" id="A"/><path fill="#24292f" d="M839-1102c70 0 148 7 206 17v167c-112-18-268-36-363 15-129 69-208 203-208 395V0H294c-10-367 32-789-52-1082h171c21 75 41 161 48 250h5c67-152 152-270 373-270" id="B"/><g id="b"><use transform="matrix(0.00885416753590107,0,0,0.00885416753590107,0,0)" xlink:href="#u"/><use transform="matrix(0.00885416753590107,0,0,0.00885416753590107,10.881771901622415,0)" xlink:href="#v"/><use transform="matrix(0.00885416753590107,0,0,0.00885416753590107,21.76354380324483,0)" xlink:href="#w"/><use transform="matrix(0.00885416753590107,0,0,0.00885416753590107,32.645315704867244,0)" xlink:href="#x"/><use transform="matrix(0.00885416753590107,0,0,0.00885416753590107,43.52708760648966,0)" xlink:href="#y"/><use transform="matrix(0.00885416753590107,0,0,0.00885416753590107,54.40885950811207,0)" xlink:href="#z"/><use transform="matrix(0.00885416753590107,0,0,0.00885416753590107,65.29063140973449,0)" xlink:href="#A"/><use transform="matrix(0.00885416753590107,0,0,0.00885416753590107,76.1724033113569,0)" xlink:href="#y"/><use transform="matrix(0.00885416753590107,0,0,0.00885416753590107,87.05417521297932,0)" xlink:href="#B"/></g><path fill="#333" d="M222-170c0 37-18 56-47 65l63 87 25 5V0h-76l-66-100H92v82l30 5V0H8v-13l28-5v-200l-30-5v-13c89 5 214-24 216 66zM92-119c45 2 75-3 75-50s-30-49-75-47v97" id="C"/><path fill="#333" d="M12-83c0-55 22-85 75-86 52-1 66 33 63 88H64c-1 37 6 64 44 63 14 0 28-4 39-6 3 28-28 25-55 27-57 4-80-31-80-86zm90-17c2-26 0-63-27-48-10 9-11 28-11 48h38" id="D"/><path fill="#333" d="M31-163c51-5 127-20 127 40v107l17 4V0h-61l-4-13C82 13 12 12 12-46c0-51 46-52 95-53 9-45-22-69-57-44l-7 20H31v-40zM62-47c0 30 26 34 45 23v-59c-28 0-45 6-45 36" id="E"/><path fill="#333" d="M15-82c-4-69 47-101 113-83l-1-69-17-4v-12h68v234l18 4V0h-63l-4-9C77 23 5-9 15-82zm112-66c-43-16-64 17-61 65 2 33 3 67 32 67 12 0 22-3 29-8v-124" id="F"/><path fill="#333" d="M108-230c-35 27-44 80-44 143s8 116 44 144v20C7 49-17-153 67-223c12-10 25-19 41-27v20" id="G"/><path fill="#333" d="M72-18c49 15 64-22 62-69-1-34-4-62-34-63-10-1-23 2-28 6v126zm33 22C77 4 48-3 21-8v-226l-16-4v-12h67c-1 31 2 66-2 94 11-8 28-14 47-14 51 0 70 31 69 83-1 55-26 91-81 91" id="H"/><g id="c"><use transform="matrix(0.04938271604938272,0,0,0.04938271604938272,0,0)" xlink:href="#C"/><use transform="matrix(0.04938271604938272,0,0,0.04938271604938272,12.790123456790125,0)" xlink:href="#D"/><use transform="matrix(0.04938271604938272,0,0,0.04938271604938272,20.641975308641978,0)" xlink:href="#E"/><use transform="matrix(0.04938271604938272,0,0,0.04938271604938272,29.530864197530867,0)" xlink:href="#F"/><use transform="matrix(0.04938271604938272,0,0,0.04938271604938272,39.40740740740741,0)" xlink:href="#G"/><use transform="matrix(0.04938271604938272,0,0,0.04938271604938272,45.283950617283956,0)" xlink:href="#H"/></g><path fill="#333" d="M27 48v-298h80v12l-36 7V29l36 7v12H27" id="I"/><path fill="#333" d="M13 48V36l36-7v-260l-36-7v-12h80V48H13" id="J"/><path fill="#333" d="M81 5L15-149c-7-2-13-5-11-16h84v11l-20 5 39 91 35-91-19-5v-11h53c2 11-4 13-11 15C134-81 111-5 75 58 65 77 34 83 8 74V32h11c0 24 29 35 43 12 7-11 13-25 19-39" id="K"/><path fill="#333" d="M78-41c-2 24 21 26 40 20C122 3 98 2 77 4 5 10 32-84 27-147H6v-11l25-7 21-38h26v38h35v18H78v106" id="L"/><path fill="#333" d="M102-142c-14-17-68-15-54 18 24 26 83 17 83 72 0 62-72 62-120 47v-45h12c4 23 16 37 43 37 35 0 39-37 9-46-31-9-65-19-64-61 0-52 59-55 108-45v43h-11" id="M"/><path fill="#333" d="M12-250C113-222 137-19 52 49 40 59 28 69 12 77V57C48 29 56-24 56-87s-9-116-44-143v-20" id="N"/><g id="d"><use transform="matrix(0.04938271604938272,0,0,0.04938271604938272,0,0)" xlink:href="#I"/><use transform="matrix(0.04938271604938272,0,0,0.04938271604938272,5.8765432098765435,0)" xlink:href="#J"/><use transform="matrix(0.04938271604938272,0,0,0.04938271604938272,11.753086419753087,0)" xlink:href="#H"/><use transform="matrix(0.04938271604938272,0,0,0.04938271604938272,21.629629629629633,0)" xlink:href="#K"/><use transform="matrix(0.04938271604938272,0,0,0.04938271604938272,30.518518518518523,0)" xlink:href="#L"/><use transform="matrix(0.04938271604938272,0,0,0.04938271604938272,36.39506172839506,0)" xlink:href="#D"/><use transform="matrix(0.04938271604938272,0,0,0.04938271604938272,44.24691358024692,0)" xlink:href="#M"/><use transform="matrix(0.04938271604938272,0,0,0.04938271604938272,51.1604938271605,0)" xlink:href="#N"/></g><path fill="#24292f" d="M1034 0L896-382H333L196 0H0l510-1349h217L1228 0h-194zM847-531c-77-225-157-447-231-674-69 231-154 451-232 674h463" id="O"/><path fill="#24292f" d="M736-142h380V0H134v-142h422v-1200H267v-142h469v1342" id="P"/><g id="e"><use transform="matrix(0.00885416753590107,0,0,0.00885416753590107,0,0)" xlink:href="#u"/><use transform="matrix(0.00885416753590107,0,0,0.00885416753590107,10.881771901622415,0)" xlink:href="#v"/><use transform="matrix(0.00885416753590107,0,0,0.00885416753590107,21.76354380324483,0)" xlink:href="#w"/><use transform="matrix(0.00885416753590107,0,0,0.00885416753590107,32.645315704867244,0)" xlink:href="#x"/><use transform="matrix(0.00885416753590107,0,0,0.00885416753590107,43.52708760648966,0)" xlink:href="#y"/><use transform="matrix(0.00885416753590107,0,0,0.00885416753590107,54.40885950811207,0)" xlink:href="#z"/><use transform="matrix(0.00885416753590107,0,0,0.00885416753590107,65.29063140973449,0)" xlink:href="#A"/><use transform="matrix(0.00885416753590107,0,0,0.00885416753590107,76.1724033113569,0)" xlink:href="#O"/><use transform="matrix(0.00885416753590107,0,0,0.00885416753590107,87.05417521297932,0)" xlink:href="#P"/><use transform="matrix(0.00885416753590107,0,0,0.00885416753590107,97.93594711460173,0)" xlink:href="#P"/></g><g id="f"><use transform="matrix(0.04938271604938272,0,0,0.04938271604938272,0,0)" xlink:href="#C"/><use transform="matrix(0.04938271604938272,0,0,0.04938271604938272,12.790123456790125,0)" xlink:href="#D"/><use transform="matrix(0.04938271604938272,0,0,0.04938271604938272,20.641975308641978,0)" xlink:href="#E"/><use transform="matrix(0.04938271604938272,0,0,0.04938271604938272,29.530864197530867,0)" xlink:href="#F"/><use transform="matrix(0.04938271604938272,0,0,0.04938271604938272,39.40740740740741,0)" xlink:href="#G"/><use transform="matrix(0.04938271604938272,0,0,0.04938271604938272,45.283950617283956,0)" xlink:href="#H"/></g><g id="g"><use transform="matrix(0.04938271604938272,0,0,0.04938271604938272,0,0)" xlink:href="#I"/><use transform="matrix(0.04938271604938272,0,0,0.04938271604938272,5.8765432098765435,0)" xlink:href="#J"/><use transform="matrix(0.04938271604938272,0,0,0.04938271604938272,11.753086419753087,0)" xlink:href="#H"/><use transform="matrix(0.04938271604938272,0,0,0.04938271604938272,21.629629629629633,0)" xlink:href="#K"/><use transform="matrix(0.04938271604938272,0,0,0.04938271604938272,30.518518518518523,0)" xlink:href="#L"/><use transform="matrix(0.04938271604938272,0,0,0.04938271604938272,36.39506172839506,0)" xlink:href="#D"/><use transform="matrix(0.04938271604938272,0,0,0.04938271604938272,44.24691358024692,0)" xlink:href="#M"/><use transform="matrix(0.04938271604938272,0,0,0.04938271604938272,51.1604938271605,0)" xlink:href="#N"/></g><path fill="#3a414a" d="M27 48v-298h80v8l-52 8V33l52 7v8H27" id="Q"/><path fill="#3a414a" d="M13 48v-8l52-7v-267l-52-8v-8h80V48H13" id="R"/><path fill="#3a414a" d="M53-14c58 12 82-15 82-73 0-52-35-77-82-58v131zM89 4C64 4 42-2 24-9v-229l-24-4v-8h53l-1 94c48-33 114-4 114 69 0 57-23 91-77 91" id="S"/><path fill="#3a414a" d="M161-154L85 37C75 66 49 86 8 75V39c18-2 6 24 29 21 30-4 38-32 47-58L21-153c-7-3-20 0-17-12h77v8l-26 4 45 116 43-116-26-4v-8h62v8" id="T"/><path fill="#3a414a" d="M84-170c49 0 66 33 63 87H46c-8 60 38 80 95 63v10C128-2 108 4 88 4 34 4 14-29 14-84c-1-54 22-86 70-86zm33 73c12-57-57-82-69-24-1 7-2 15-2 24h71" id="U"/><g id="h"><use transform="matrix(0.06172839506172839,0,0,0.06172839506172839,0,0)" xlink:href="#Q"/><use transform="matrix(0.06172839506172839,0,0,0.06172839506172839,7.345679012345679,0)" xlink:href="#R"/><use transform="matrix(0.06172839506172839,0,0,0.06172839506172839,14.691358024691358,0)" xlink:href="#S"/><use transform="matrix(0.06172839506172839,0,0,0.06172839506172839,25.80246913580247,0)" xlink:href="#T"/><use transform="matrix(0.06172839506172839,0,0,0.06172839506172839,36.91358024691358,0)" xlink:href="#t"/><use transform="matrix(0.06172839506172839,0,0,0.06172839506172839,43.086419753086425,0)" xlink:href="#U"/></g><path fill="#24292f" d="M614-1226c-167 1-283 53-283 213 0 183 186 193 334 234 230 63 463 120 463 409 0 286-219 387-518 390C309 23 131-98 79-338l185-37c34 165 149 248 351 246 184-2 324-58 324-238 0-203-207-221-372-266-210-57-422-111-422-377 0-267 201-356 470-360 279-5 430 101 480 324l-188 33c-28-141-121-215-293-213" id="V"/><path fill="#24292f" d="M631 20c-350 0-501-215-501-562 0-355 162-560 502-560 250 0 399 118 446 323l-192 14c-23-124-109-196-262-196-242 0-305 171-305 415 1 245 61 427 304 427 151 0 248-77 267-215l190 12C1039-107 883 20 631 20" id="W"/><path fill="#24292f" d="M682 16c-209 0-323-80-324-285v-671H190v-142h170l58-282h120v282h432v142H538v652c2 114 60 155 182 155 106 0 209-16 297-34v137C921-4 806 16 682 16" id="X"/><g id="i"><use transform="matrix(0.00885416753590107,0,0,0.00885416753590107,0,0)" xlink:href="#x"/><use transform="matrix(0.00885416753590107,0,0,0.00885416753590107,10.881771901622415,0)" xlink:href="#y"/><use transform="matrix(0.00885416753590107,0,0,0.00885416753590107,21.76354380324483,0)" xlink:href="#z"/><use transform="matrix(0.00885416753590107,0,0,0.00885416753590107,32.645315704867244,0)" xlink:href="#A"/><use transform="matrix(0.00885416753590107,0,0,0.00885416753590107,43.52708760648966,0)" xlink:href="#y"/><use transform="matrix(0.00885416753590107,0,0,0.00885416753590107,54.40885950811207,0)" xlink:href="#B"/><use transform="matrix(0.00885416753590107,0,0,0.00885416753590107,65.29063140973449,0)" xlink:href="#V"/><use transform="matrix(0.00885416753590107,0,0,0.00885416753590107,76.1724033113569,0)" xlink:href="#y"/><use transform="matrix(0.00885416753590107,0,0,0.00885416753590107,87.05417521297932,0)" xlink:href="#P"/><use transform="matrix(0.00885416753590107,0,0,0.00885416753590107,97.93594711460173,0)" xlink:href="#y"/><use transform="matrix(0.00885416753590107,0,0,0.00885416753590107,108.81771901622415,0)" xlink:href="#W"/><use transform="matrix(0.00885416753590107,0,0,0.00885416753590107,119.69949091784656,0)" xlink:href="#X"/><use transform="matrix(0.00885416753590107,0,0,0.00885416753590107,130.58126281946898,0)" xlink:href="#v"/><use transform="matrix(0.00885416753590107,0,0,0.00885416753590107,141.4630347210914,0)" xlink:href="#B"/></g><path fill="#3a414a" d="M90-170c52 0 76 32 76 87 0 54-24 87-77 87-51 0-75-34-75-87 0-54 24-87 76-87zM89-10c39 0 46-35 46-73 0-39-7-73-46-73-39 1-44 34-44 73s6 72 44 73" id="Y"/><g id="j"><use transform="matrix(0.06172839506172839,0,0,0.06172839506172839,0,0)" xlink:href="#Y"/><use transform="matrix(0.06172839506172839,0,0,0.06172839506172839,11.11111111111111,0)" xlink:href="#s"/><use transform="matrix(0.06172839506172839,0,0,0.06172839506172839,22.22222222222222,0)" xlink:href="#t"/><use transform="matrix(0.06172839506172839,0,0,0.06172839506172839,28.39506172839506,0)" xlink:href="#r"/><use transform="matrix(0.06172839506172839,0,0,0.06172839506172839,39.50617283950617,0)" xlink:href="#s"/><use transform="matrix(0.06172839506172839,0,0,0.06172839506172839,50.61728395061728,0)" xlink:href="#t"/></g><path fill="#3a414a" d="M111-226l-36 4v207c33-1 73 2 101-4l11-49h11l-3 68H10v-9l31-5v-208l-31-4v-10h101v10" id="Z"/><path fill="#3a414a" d="M178-68c0 79-95 82-154 59v-54h12c1 35 22 52 60 52 50 0 69-58 33-82-39-24-105-21-105-85 0-67 86-66 142-53v49h-12l-6-29c-31-27-121-7-89 42 28 43 119 24 119 101" id="aa"/><path fill="#3a414a" d="M45-84c0 64 52 80 104 63 1 25-30 25-55 25-56 0-80-32-80-88 0-76 62-98 131-80v46h-10c-5-15-4-31-23-35-47-10-67 21-67 69" id="ab"/><path fill="#3a414a" d="M32-163c41-10 102-14 102 39v112c8 3 24-2 21 12h-45l-4-17C83 13 3 13 13-46c-2-50 45-50 92-51 4-36-5-70-42-56-6 2-12 4-16 6-4 7 0 23-15 20v-36zM42-47c0 41 41 33 63 22v-59c-34 1-63-1-63 37" id="ac"/><path fill="#3a414a" d="M57-145c16-10 35-24 60-25v45c-19 1-8-30-40-17l-20 6v124l29 4v8H7v-8l21-4v-141c-8-3-24 2-21-12h48" id="ad"/><g id="k"><use transform="matrix(0.03703703703703702,0,0,0.03703703703703702,0,0)" xlink:href="#Z"/><use transform="matrix(0.03703703703703702,0,0,0.03703703703703702,8.111111111111107,0)" xlink:href="#p"/><use transform="matrix(0.03703703703703702,0,0,0.03703703703703702,11.81481481481481,0)" xlink:href="#q"/><use transform="matrix(0.03703703703703702,0,0,0.03703703703703702,18.481481481481474,0)" xlink:href="#U"/><use transform="matrix(0.03703703703703702,0,0,0.03703703703703702,24.37037037037036,0)" xlink:href="#aa"/><use transform="matrix(0.03703703703703702,0,0,0.03703703703703702,31.777777777777764,0)" xlink:href="#ab"/><use transform="matrix(0.03703703703703702,0,0,0.03703703703703702,37.66666666666665,0)" xlink:href="#ac"/><use transform="matrix(0.03703703703703702,0,0,0.03703703703703702,43.555555555555536,0)" xlink:href="#q"/><use transform="matrix(0.03703703703703702,0,0,0.03703703703703702,50.2222222222222,0)" xlink:href="#q"/><use transform="matrix(0.03703703703703702,0,0,0.03703703703703702,56.888888888888864,0)" xlink:href="#U"/><use transform="matrix(0.03703703703703702,0,0,0.03703703703703702,62.77777777777775,0)" xlink:href="#ad"/></g><path fill="#3a414a" d="M199-173c-1 36-21 56-49 65l64 94 26 5v9h-57l-66-103H75v89l35 5v9H13v-9l28-5v-208l-31-4v-10c80 4 190-20 189 63zM75-119c50 2 89-1 89-51 0-49-39-52-89-50v101" id="ae"/><path fill="#3a414a" d="M13-81c0-71 46-101 114-85l-1-72-28-4v-8h57v238c8 3 24-2 21 12h-47l-2-12C80 23 13-1 13-81zm77-74c-37 1-44 33-45 74 0 38 9 66 45 66 14 0 27-3 36-7v-130c-10-1-24-3-36-3" id="af"/><path fill="#3a414a" d="M65-12l28 4v8H7v-8l28-4v-226l-28-4v-8h58v238" id="ag"/><g id="l"><use transform="matrix(0.06172839506172839,0,0,0.06172839506172839,0,0)" xlink:href="#ae"/><use transform="matrix(0.06172839506172839,0,0,0.06172839506172839,14.814814814814813,0)" xlink:href="#U"/><use transform="matrix(0.06172839506172839,0,0,0.06172839506172839,24.629629629629626,0)" xlink:href="#ac"/><use transform="matrix(0.06172839506172839,0,0,0.06172839506172839,34.44444444444444,0)" xlink:href="#af"/><use transform="matrix(0.06172839506172839,0,0,0.06172839506172839,45.55555555555556,0)" xlink:href="#U"/><use transform="matrix(0.06172839506172839,0,0,0.06172839506172839,55.370370370370374,0)" xlink:href="#ad"/><use transform="matrix(0.06172839506172839,0,0,0.06172839506172839,62.71604938271605,0)" xlink:href="#aa"/><use transform="matrix(0.06172839506172839,0,0,0.06172839506172839,75.06172839506173,0)" xlink:href="#U"/><use transform="matrix(0.06172839506172839,0,0,0.06172839506172839,84.87654320987654,0)" xlink:href="#ag"/><use transform="matrix(0.06172839506172839,0,0,0.06172839506172839,91.04938271604938,0)" xlink:href="#U"/><use transform="matrix(0.06172839506172839,0,0,0.06172839506172839,100.86419753086419,0)" xlink:href="#ab"/><use transform="matrix(0.06172839506172839,0,0,0.06172839506172839,110.679012345679,0)" xlink:href="#t"/><use transform="matrix(0.06172839506172839,0,0,0.06172839506172839,116.85185185185183,0)" xlink:href="#Y"/><use transform="matrix(0.06172839506172839,0,0,0.06172839506172839,127.96296296296296,0)" xlink:href="#ad"/></g><g id="m"><use transform="matrix(0.06172839506172839,0,0,0.06172839506172839,0,0)" xlink:href="#Q"/><use transform="matrix(0.06172839506172839,0,0,0.06172839506172839,7.345679012345679,0)" xlink:href="#R"/><use transform="matrix(0.06172839506172839,0,0,0.06172839506172839,14.691358024691358,0)" xlink:href="#S"/><use transform="matrix(0.06172839506172839,0,0,0.06172839506172839,25.80246913580247,0)" xlink:href="#T"/><use transform="matrix(0.06172839506172839,0,0,0.06172839506172839,36.91358024691358,0)" xlink:href="#t"/><use transform="matrix(0.06172839506172839,0,0,0.06172839506172839,43.086419753086425,0)" xlink:href="#U"/></g><g id="n"><use transform="matrix(0.00885416753590107,0,0,0.00885416753590107,0,0)" xlink:href="#u"/><use transform="matrix(0.00885416753590107,0,0,0.00885416753590107,10.881771901622415,0)" xlink:href="#v"/><use transform="matrix(0.00885416753590107,0,0,0.00885416753590107,21.76354380324483,0)" xlink:href="#w"/><use transform="matrix(0.00885416753590107,0,0,0.00885416753590107,32.645315704867244,0)" xlink:href="#x"/><use transform="matrix(0.00885416753590107,0,0,0.00885416753590107,43.52708760648966,0)" xlink:href="#y"/><use transform="matrix(0.00885416753590107,0,0,0.00885416753590107,54.40885950811207,0)" xlink:href="#z"/><use transform="matrix(0.00885416753590107,0,0,0.00885416753590107,65.29063140973449,0)" xlink:href="#A"/><use transform="matrix(0.00885416753590107,0,0,0.00885416753590107,76.1724033113569,0)" xlink:href="#y"/><use transform="matrix(0.00885416753590107,0,0,0.00885416753590107,87.05417521297932,0)" xlink:href="#B"/></g><path fill="#3a414a" d="M41-130c7 48 86 23 86 84 0 56-69 57-112 41v-40c20 0 9 29 31 31 35 19 77-26 41-50-27-18-72-13-72-59 0-50 58-52 100-41v36c-19 1-8-25-28-25-21-7-50-1-46 23" id="ah"/><g id="o"><use transform="matrix(0.04320987654320987,0,0,0.04320987654320987,0,0)" xlink:href="#r"/><use transform="matrix(0.04320987654320987,0,0,0.04320987654320987,7.777777777777776,0)" xlink:href="#ad"/><use transform="matrix(0.04320987654320987,0,0,0.04320987654320987,12.91975308641975,0)" xlink:href="#Y"/><use transform="matrix(0.04320987654320987,0,0,0.04320987654320987,20.697530864197525,0)" xlink:href="#ab"/><use transform="matrix(0.04320987654320987,0,0,0.04320987654320987,27.56790123456789,0)" xlink:href="#U"/><use transform="matrix(0.04320987654320987,0,0,0.04320987654320987,34.43827160493826,0)" xlink:href="#ah"/><use transform="matrix(0.04320987654320987,0,0,0.04320987654320987,40.48765432098764,0)" xlink:href="#ah"/><use transform="matrix(0.04320987654320987,0,0,0.04320987654320987,46.53703703703702,0)" xlink:href="#Z"/><use transform="matrix(0.04320987654320987,0,0,0.04320987654320987,55.99999999999998,0)" xlink:href="#p"/><use transform="matrix(0.04320987654320987,0,0,0.04320987654320987,60.320987654320966,0)" xlink:href="#q"/><use transform="matrix(0.04320987654320987,0,0,0.04320987654320987,68.09876543209874,0)" xlink:href="#U"/></g></defs></g></svg>